<?xml version="1.0" encoding="utf-8"?>
<!-- Generator: Adobe Illustrator 17.0.0, SVG Export Plug-In . SVG Version: 6.00 Build 0)  -->
<svg version="1.2" baseProfile="tiny" id="Layer_1" xmlns="http://www.w3.org/2000/svg" xmlns:xlink="http://www.w3.org/1999/xlink"
	 x="0px" y="0px" width="440px" height="164.505px" viewBox="0 0 440 164.505" xml:space="preserve">
<g id="XMLID_1_">
	<linearGradient id="XMLID_3_" gradientUnits="userSpaceOnUse" x1="10.9254" y1="86.7041" x2="128.5137" y2="86.7041">
		<stop  offset="0.0144" style="stop-color:#28A8E0"/>
		<stop  offset="1" style="stop-color:#2A3B8F"/>
	</linearGradient>
	<path id="XMLID_678_" fill="url(#XMLID_3_)" d="M127.79,62.683c-0.344,4.172-1.603,8.032-3.323,11.735
		c-2.734,6.407-5.956,10.294-5.956,10.294c-11.505-10.181-22.446-12.947-22.446-12.947l4.083-6.898
		c4.09-6.452,1.349-16.244-3.975-20.467c-3.969-3.148-8.25-4.721-13.255-4.708c-12.352,0.033-24.705,0-37.057-0.003
		c-8.436-0.002-8.436,0.001-8.32,8.318c0.066,4.754,0.072,4.737,4.534,6.409c1.83,0.686,3.616,1.486,5.438,2.193
		c17.253,6.692,34.504,13.387,51.767,20.054c9.201,3.553,16.519,9.177,22.104,17.547c6.886,10.322,8.657,21.751,5.862,33.033
		c-4.674,18.868-20.59,33.036-40.686,32.995c-11.249-0.022-22.499-0.004-33.749-0.001c-12.573,0.003-25.146,0.031-37.719-0.013
		c-3.956-0.014-4.049-0.103-4.058-3.954c-0.037-16.323,0.05-32.646-0.077-48.968c-0.02-2.57,0.67-4.13,3.092-4.96
		c1.026-0.351,1.947-1,2.964-1.388c9.144-3.496,18.294-6.98,27.455-10.431c2.621-0.987,5.148-0.91,7.766,0.188l-0.079-0.037
		l33.123,12.454l-3.563,1.435c-12.17,4.723-24.378,9.347-36.522,14.136c-8.04,3.171-7.999,3.273-7.656,11.679
		c0.13,3.194,0.13,3.303,3.343,3.311c15.44,0.04,30.881,0.014,46.321,0.019c5.11,0.002,8.728-2.731,11.321-6.724
		c5.545-8.538,3.718-20.004-7.054-24.802c-4.568-2.035-9.274-3.769-13.949-5.557c-13.014-4.978-26.051-9.895-39.066-14.87
		c-7.932-3.032-15.822-6.174-23.767-9.168c-2.838-1.07-3.795-2.777-3.759-5.905c0.186-16.1,0.092-32.203,0.095-48.305
		c0-0.882,0.034-1.766-0.003-2.647c-0.085-2.044,1.01-2.672,2.875-2.565c1.319,0.076,2.646,0.006,3.969,0.006
		c20.734,0.002,41.469-0.009,62.203,0.017c4.366,0.005,8.656,0.212,13.034,1.057c10.662,2.056,20.731,8.932,27.224,17.908l0-0.011
		c0.032,0.047,0.058,0.094,0.09,0.142c2.034,2.834,3.722,5.869,4.948,9.033c0.441,1.137,0.774,2.273,1.062,3.408
		C128.406,51.209,128.562,57.299,127.79,62.683z"/>
	<g id="XMLID_641_">
		<g id="XMLID_651_">
			<linearGradient id="XMLID_4_" gradientUnits="userSpaceOnUse" x1="15.0122" y1="124.4954" x2="517.9698" y2="127.1994">
				<stop  offset="0.0144" style="stop-color:#28A8E0"/>
				<stop  offset="1" style="stop-color:#2A3B8F"/>
			</linearGradient>
			<path id="XMLID_675_" fill="url(#XMLID_4_)" d="M138.377,143.805V106.65c0-0.792,0.507-1.19,1.519-1.19h22.528
				c0.886,0,1.327,0.415,1.327,1.244c0,0.361-0.127,0.676-0.379,0.947c-0.254,0.27-0.57,0.405-0.949,0.405h-20.882v15.901h10.06
				c0.38,0,0.697,0.127,0.951,0.379c0.252,0.253,0.379,0.559,0.379,0.919c0,0.794-0.442,1.19-1.329,1.19h-10.06v15.955h20.882
				c0.379,0,0.695,0.135,0.949,0.406c0.252,0.27,0.379,0.586,0.379,0.946c0,0.83-0.442,1.244-1.327,1.244h-22.528
				C138.884,144.995,138.377,144.599,138.377,143.805z"/>
			<linearGradient id="XMLID_5_" gradientUnits="userSpaceOnUse" x1="13.7166" y1="124.3244" x2="516.6743" y2="127.0285">
				<stop  offset="0.0144" style="stop-color:#28A8E0"/>
				<stop  offset="1" style="stop-color:#2A3B8F"/>
			</linearGradient>
			<path id="XMLID_673_" fill="url(#XMLID_5_)" d="M168.847,143.805v-37.209c0-0.758,0.528-1.136,1.583-1.136
				c0.801,0,1.665,0.739,2.595,2.217l18.287,30.883v-31.964c0-0.758,0.526-1.136,1.583-1.136c1.053,0,1.581,0.379,1.581,1.136
				v37.209c0,0.794-0.528,1.19-1.581,1.19c-0.676,0-1.435-0.666-2.278-2.001l-18.604-31.153v31.964c0,0.794-0.528,1.19-1.583,1.19
				C169.375,144.995,168.847,144.599,168.847,143.805z"/>
			<linearGradient id="XMLID_6_" gradientUnits="userSpaceOnUse" x1="12.4212" y1="124.1156" x2="515.3788" y2="126.8196">
				<stop  offset="0.0144" style="stop-color:#28A8E0"/>
				<stop  offset="1" style="stop-color:#2A3B8F"/>
			</linearGradient>
			<path id="XMLID_671_" fill="url(#XMLID_6_)" d="M199.442,107.677c-0.254-0.252-0.38-0.558-0.38-0.919
				c0-0.36,0.127-0.667,0.38-0.92c0.254-0.252,0.569-0.379,0.949-0.379h25.058c0.886,0,1.329,0.415,1.329,1.244
				c0,0.902-0.444,1.352-1.329,1.352h-10.884v35.75c0,0.794-0.528,1.19-1.583,1.19c-1.055,0-1.581-0.396-1.581-1.19v-35.75h-11.01
				C200.011,108.055,199.696,107.929,199.442,107.677z"/>
			<linearGradient id="XMLID_7_" gradientUnits="userSpaceOnUse" x1="11.1255" y1="123.9745" x2="514.0831" y2="126.6786">
				<stop  offset="0.0144" style="stop-color:#28A8E0"/>
				<stop  offset="1" style="stop-color:#2A3B8F"/>
			</linearGradient>
			<path id="XMLID_669_" fill="url(#XMLID_7_)" d="M231.366,143.805V106.65c0-0.792,0.507-1.19,1.519-1.19h22.528
				c0.886,0,1.327,0.415,1.327,1.244c0,0.361-0.127,0.676-0.379,0.947c-0.254,0.27-0.57,0.405-0.949,0.405h-20.882v15.901h10.06
				c0.38,0,0.697,0.127,0.951,0.379c0.252,0.253,0.379,0.559,0.379,0.919c0,0.794-0.442,1.19-1.329,1.19h-10.06v15.955h20.882
				c0.379,0,0.695,0.135,0.949,0.406c0.252,0.27,0.379,0.586,0.379,0.946c0,0.83-0.442,1.244-1.327,1.244h-22.528
				C231.873,144.995,231.366,144.599,231.366,143.805z"/>
			<linearGradient id="XMLID_8_" gradientUnits="userSpaceOnUse" x1="12.4227" y1="123.8352" x2="515.3804" y2="126.5393">
				<stop  offset="0.0144" style="stop-color:#28A8E0"/>
				<stop  offset="1" style="stop-color:#2A3B8F"/>
			</linearGradient>
			<path id="XMLID_666_" fill="url(#XMLID_8_)" d="M264.426,143.805v-37.209c0-0.325,0.127-0.595,0.38-0.812
				c0.254-0.217,0.59-0.325,1.012-0.325h10.82c3.965,0,7.183,0.821,9.651,2.461c2.467,1.641,3.701,4.318,3.701,8.032
				c0,6.057-3.438,9.501-10.313,10.33l10.123,16.766c0.127,0.217,0.19,0.433,0.19,0.649c0,0.361-0.158,0.676-0.474,0.947
				c-0.317,0.27-0.729,0.405-1.234,0.405c-0.507,0-1.162-0.63-1.961-1.893l-9.935-16.604h-8.796v17.253
				c0,0.794-0.528,1.19-1.583,1.19C264.954,144.995,264.426,144.599,264.426,143.805z M267.592,124.065h9.047
				c6.792,0,10.188-2.686,10.188-8.059c0-5.3-3.396-7.951-10.188-7.951h-9.047V124.065z"/>
			<linearGradient id="XMLID_9_" gradientUnits="userSpaceOnUse" x1="13.7202" y1="123.6584" x2="516.6779" y2="126.3624">
				<stop  offset="0.0144" style="stop-color:#28A8E0"/>
				<stop  offset="1" style="stop-color:#2A3B8F"/>
			</linearGradient>
			<path id="XMLID_661_" fill="url(#XMLID_9_)" d="M298.311,143.805v-37.209c0-0.685,0.486-1.063,1.456-1.136h11.391
				c3.838,0,6.917,0.911,9.238,2.731c2.32,1.821,3.481,4.679,3.481,8.572v0.595c0,3.894-1.171,6.761-3.512,8.599
				c-2.34,1.839-5.431,2.759-9.269,2.759h-9.618v15.089c0,0.794-0.528,1.19-1.583,1.19S298.311,144.599,298.311,143.805z
				 M301.476,126.228h9.618c3.079,0,5.451-0.73,7.118-2.19s2.5-3.668,2.5-6.625v-0.595c0-2.921-0.833-5.111-2.5-6.571
				c-1.667-1.46-4.039-2.191-7.118-2.191h-9.618V126.228z"/>
			<linearGradient id="XMLID_10_" gradientUnits="userSpaceOnUse" x1="12.4246" y1="123.4838" x2="515.3823" y2="126.1879">
				<stop  offset="0.0144" style="stop-color:#28A8E0"/>
				<stop  offset="1" style="stop-color:#2A3B8F"/>
			</linearGradient>
			<path id="XMLID_658_" fill="url(#XMLID_10_)" d="M329.792,143.805v-37.209c0-0.325,0.127-0.595,0.38-0.812
				c0.254-0.217,0.59-0.325,1.012-0.325h10.82c3.965,0,7.183,0.821,9.651,2.461c2.467,1.641,3.701,4.318,3.701,8.032
				c0,6.057-3.438,9.501-10.313,10.33l10.123,16.766c0.127,0.217,0.19,0.433,0.19,0.649c0,0.361-0.158,0.676-0.474,0.947
				c-0.317,0.27-0.729,0.405-1.234,0.405c-0.507,0-1.162-0.63-1.961-1.893l-9.935-16.604h-8.796v17.253
				c0,0.794-0.528,1.19-1.583,1.19S329.792,144.599,329.792,143.805z M332.957,124.065h9.047c6.792,0,10.188-2.686,10.188-8.059
				c0-5.3-3.396-7.951-10.188-7.951h-9.047V124.065z"/>
			<linearGradient id="XMLID_11_" gradientUnits="userSpaceOnUse" x1="12.4254" y1="123.3374" x2="515.3831" y2="126.0414">
				<stop  offset="0.0144" style="stop-color:#28A8E0"/>
				<stop  offset="1" style="stop-color:#2A3B8F"/>
			</linearGradient>
			<path id="XMLID_656_" fill="url(#XMLID_11_)" d="M362.38,143.805v-37.209c0-0.758,0.528-1.136,1.583-1.136
				c1.055,0,1.583,0.379,1.583,1.136v37.209c0,0.794-0.528,1.19-1.583,1.19C362.908,144.995,362.38,144.599,362.38,143.805z"/>
			<linearGradient id="XMLID_12_" gradientUnits="userSpaceOnUse" x1="13.7219" y1="123.353" x2="516.6794" y2="126.0571">
				<stop  offset="0.0144" style="stop-color:#28A8E0"/>
				<stop  offset="1" style="stop-color:#2A3B8F"/>
			</linearGradient>
			<path id="XMLID_654_" fill="url(#XMLID_12_)" d="M374.245,139.695c0-0.36,0.158-0.703,0.474-1.027
				c0.317-0.325,0.643-0.487,0.981-0.487c0.254,0,0.634,0.234,1.139,0.702l1.709,1.569c0.632,0.577,1.655,1.1,3.069,1.569
				c1.414,0.469,3.048,0.703,4.905,0.703c3.246,0,5.736-0.685,7.467-2.055c1.729-1.37,2.593-3.389,2.593-6.057
				c0-2.019-0.526-3.696-1.581-5.03s-2.363-2.29-3.924-2.867c-1.56-0.576-3.259-1.171-5.093-1.784
				c-1.834-0.613-3.533-1.217-5.093-1.812c-1.562-0.595-2.87-1.577-3.924-2.948c-1.055-1.37-1.581-3.1-1.581-5.192
				c0-1.874,0.4-3.47,1.202-4.787c0.801-1.315,1.877-2.306,3.227-2.974c1.349-0.666,2.71-1.136,4.081-1.406
				c1.37-0.27,2.836-0.406,4.398-0.406c2.532,0,4.882,0.316,7.056,0.946c2.171,0.631,3.259,1.344,3.259,2.136
				c0,0.325-0.15,0.667-0.444,1.027c-0.296,0.361-0.632,0.541-1.012,0.541c-0.211,0-0.676-0.171-1.393-0.514
				c-0.718-0.342-1.739-0.685-3.069-1.027c-1.329-0.342-2.815-0.514-4.461-0.514c-2.743,0-5.042,0.514-6.898,1.541
				s-2.783,2.768-2.783,5.219c0,1.479,0.389,2.714,1.171,3.705c0.78,0.992,1.792,1.757,3.037,2.298
				c1.243,0.54,2.614,1.027,4.113,1.46c1.498,0.432,3.007,0.919,4.525,1.46c1.519,0.54,2.9,1.208,4.144,2.001
				c1.245,0.793,2.257,1.92,3.039,3.38c0.78,1.46,1.171,3.218,1.171,5.273c0,3.678-1.171,6.428-3.512,8.248
				c-2.342,1.821-5.474,2.731-9.398,2.731c-3.629,0-6.634-0.667-9.018-2.002C375.435,141.985,374.245,140.777,374.245,139.695z"/>
			<linearGradient id="XMLID_13_" gradientUnits="userSpaceOnUse" x1="13.7235" y1="123.0414" x2="516.6812" y2="125.7455">
				<stop  offset="0.0144" style="stop-color:#28A8E0"/>
				<stop  offset="1" style="stop-color:#2A3B8F"/>
			</linearGradient>
			<path id="XMLID_652_" fill="url(#XMLID_13_)" d="M407.528,143.805V106.65c0-0.792,0.507-1.19,1.519-1.19h22.528
				c0.886,0,1.327,0.415,1.327,1.244c0,0.361-0.127,0.676-0.379,0.947c-0.254,0.27-0.57,0.405-0.949,0.405h-20.882v15.901h10.06
				c0.38,0,0.697,0.127,0.951,0.379c0.252,0.253,0.379,0.559,0.379,0.919c0,0.794-0.442,1.19-1.329,1.19h-10.06v15.955h20.882
				c0.379,0,0.695,0.135,0.949,0.406c0.252,0.27,0.379,0.586,0.379,0.946c0,0.83-0.442,1.244-1.327,1.244h-22.528
				C408.035,144.995,407.528,144.599,407.528,143.805z"/>
		</g>
		<g id="XMLID_642_">
			<linearGradient id="XMLID_14_" gradientUnits="userSpaceOnUse" x1="135.6627" y1="56.0836" x2="441.2441" y2="69.0384">
				<stop  offset="0.0144" style="stop-color:#28A8E0"/>
				<stop  offset="1" style="stop-color:#2A3B8F"/>
			</linearGradient>
			<path id="XMLID_648_" fill="url(#XMLID_14_)" d="M170.948,54.24c3.032-2.632,4.785-6.222,4.707-10.131
				c-0.08-9.091-7.179-15.153-17.787-15.153c-3.191,0-15.873,0-18.983,0c-0.559,0-0.876,0.318-0.876,0.876v53.677
				c0,0.478,0.318,0.798,0.796,0.798h11.405V72.664V59.902h9.652c4.226,0,7.019,1.994,7.019,5.903c0,4.067-3.11,6.779-7.736,6.779
				l-4.478,0.04v11.685h5.034c11.806,0,19.542-6.62,19.383-16.51C179.004,61.578,175.972,56.952,170.948,54.24z M157.231,50.81
				c-1.196,0-5.822,0-7.021,0V40.68l6.222-0.078c4.226,0,7.018,1.834,7.018,4.626C163.451,48.657,161.457,50.81,157.231,50.81z"/>
			<linearGradient id="XMLID_15_" gradientUnits="userSpaceOnUse" x1="135.942" y1="49.4952" x2="441.5234" y2="62.4501">
				<stop  offset="0.0144" style="stop-color:#28A8E0"/>
				<stop  offset="1" style="stop-color:#2A3B8F"/>
			</linearGradient>
			<path id="XMLID_647_" fill="url(#XMLID_15_)" d="M312.702,28.957h-17.628c-0.478,0-0.796,0.318-0.796,0.796v53.758
				c0,0.478,0.318,0.798,0.796,0.798h11.405V72.584v-0.315V40.601h6.222c9.731,0,16.19,6.381,16.19,16.031
				c0,9.57-6.46,15.951-16.19,15.951h-1.765v11.725h1.765c17.069,0,28.313-10.607,28.313-27.676
				C341.015,39.644,329.77,28.957,312.702,28.957z"/>
			<linearGradient id="XMLID_16_" gradientUnits="userSpaceOnUse" x1="136.1295" y1="45.0723" x2="441.7109" y2="58.0271">
				<stop  offset="0.0144" style="stop-color:#28A8E0"/>
				<stop  offset="1" style="stop-color:#2A3B8F"/>
			</linearGradient>
			<path id="XMLID_646_" fill="url(#XMLID_16_)" d="M431.553,73.382h-16.671V29.753c0-0.557-0.318-0.796-0.718-0.796h-10.766
				c-0.4,0-0.718,0.318-0.718,0.796v53.838c0,0.398,0.318,0.718,0.796,0.718h28.157c0.398,0,0.718-0.32,0.718-0.718V74.18
				C432.351,73.621,432.031,73.382,431.553,73.382z"/>
			<linearGradient id="XMLID_17_" gradientUnits="userSpaceOnUse" x1="135.7518" y1="53.9824" x2="441.3332" y2="66.9372">
				<stop  offset="0.0144" style="stop-color:#28A8E0"/>
				<stop  offset="1" style="stop-color:#2A3B8F"/>
			</linearGradient>
			<path id="XMLID_645_" fill="url(#XMLID_17_)" d="M215.221,29.714c-0.159-0.479-0.559-0.718-1.037-0.718h-11.086
				c-0.478,0-0.879,0.239-1.037,0.718l-20.338,53.679c-0.239,0.557,0,0.876,0.637,0.876h10.607c0.4,0,0.718-0.159,0.879-0.559
				l4.546-11.962l0.3-0.811l0,0l2.969-8.038l0,0l0.562-1.521h-0.002L208.6,44.47l6.381,16.908h0l3.908,10.37l4.465,11.962
				c0.08,0.32,0.478,0.559,0.798,0.559h10.768c0.559,0,0.798-0.32,0.559-0.876L215.221,29.714z"/>
			<linearGradient id="XMLID_18_" gradientUnits="userSpaceOnUse" x1="135.8505" y1="51.654" x2="441.4319" y2="64.6088">
				<stop  offset="0.0144" style="stop-color:#28A8E0"/>
				<stop  offset="1" style="stop-color:#2A3B8F"/>
			</linearGradient>
			<path id="XMLID_644_" fill="url(#XMLID_18_)" d="M270.242,29.714c-0.159-0.479-0.559-0.718-1.037-0.718h-11.086
				c-0.478,0-0.879,0.239-1.037,0.718l-20.338,53.679c-0.239,0.557,0,0.876,0.637,0.876h10.607c0.4,0,0.718-0.159,0.879-0.559
				l4.546-11.962l0.524-1.418l-0.524,1.418l3.828-10.37l-0.335,0.914l0.338-0.914h-0.002l6.381-16.908l6.381,16.908h0l3.909,10.37
				l4.465,11.962c0.08,0.32,0.478,0.559,0.798,0.559h10.768c0.559,0,0.798-0.32,0.559-0.876L270.242,29.714z"/>
			<linearGradient id="XMLID_19_" gradientUnits="userSpaceOnUse" x1="136.0423" y1="47.1297" x2="441.6237" y2="60.0845">
				<stop  offset="0.0144" style="stop-color:#28A8E0"/>
				<stop  offset="1" style="stop-color:#2A3B8F"/>
			</linearGradient>
			<path id="XMLID_643_" fill="url(#XMLID_19_)" d="M377.153,29.714c-0.159-0.479-0.559-0.718-1.037-0.718H365.03
				c-0.478,0-0.879,0.239-1.037,0.718l-20.338,53.679c-0.239,0.557,0,0.876,0.637,0.876h10.607c0.4,0,0.718-0.159,0.879-0.559
				l4.546-11.962h0.044l0.362-0.981l0,0l2.969-8.038l0,0l0.499-1.352h-0.046l6.381-16.908l6.381,16.908h-0.023l3.908,10.37h0.022
				l4.465,11.962c0.08,0.32,0.478,0.559,0.798,0.559h10.768c0.559,0,0.798-0.32,0.559-0.876L377.153,29.714z"/>
		</g>
	</g>
</g>
</svg>
