<svg width="107" height="37" viewBox="0 0 107 37" fill="none" xmlns="http://www.w3.org/2000/svg">
<path d="M19.5902 12.7623L23.1312 12.7623L23.1312 9.81151C23.1312 8.83369 22.3385 8.04102 21.3607 8.04102C20.3829 8.04102 19.5902 8.83369 19.5902 9.81151V12.7623Z" fill="url(#paint0_linear)"/>
<path d="M23.1312 16.3033H19.5902L19.5902 33.4181C19.5902 34.3959 20.3829 35.1886 21.3607 35.1886C22.3385 35.1886 23.1312 34.3959 23.1312 33.4181L23.1312 16.3033Z" fill="url(#paint1_linear)"/>
<path d="M29.623 21.6148C29.623 22.5926 28.8303 23.3853 27.8525 23.3853L9.55742 23.3853C8.57961 23.3853 7.78693 22.5926 7.78693 21.6148C7.78693 20.637 8.57961 19.8443 9.55742 19.8443L27.8525 19.8443C28.8303 19.8443 29.623 20.637 29.623 21.6148Z" fill="url(#paint2_linear)"/>
<path d="M31.3364 21.6148C31.3364 20.6051 32.1549 19.7867 33.1645 19.7867C34.1742 19.7867 34.9927 20.6051 34.9927 21.6148C34.9927 22.6244 34.1742 23.4429 33.1645 23.4429C32.1549 23.4429 31.3364 22.6244 31.3364 21.6148Z" fill="url(#paint3_linear)"/>
<path d="M23.1312 16.3033L19.5902 16.3033L19.5902 19.2541L23.1312 19.2541L23.1312 16.3033Z" fill="url(#paint4_linear)"/>
<path d="M16.0492 23.3853L12.5082 23.3853L12.5082 26.3361C12.5082 27.3139 13.3009 28.1066 14.2787 28.1066C15.2565 28.1066 16.0492 27.3139 16.0492 26.3361L16.0492 23.3853Z" fill="url(#paint5_linear)"/>
<path d="M12.5082 19.8443H16.0492L16.0492 2.72954C16.0492 1.75172 15.2565 0.959046 14.2787 0.959045C13.3009 0.959045 12.5082 1.75172 12.5082 2.72954L12.5082 19.8443Z" fill="url(#paint6_linear)"/>
<path d="M6.01638 14.5328C6.01638 13.555 6.80905 12.7623 7.78687 12.7623H26.082C27.0598 12.7623 27.8524 13.555 27.8524 14.5328C27.8524 15.5106 27.0598 16.3033 26.082 16.3033H7.78687C6.80905 16.3033 6.01638 15.5106 6.01638 14.5328Z" fill="url(#paint7_linear)"/>
<path d="M0.646126 14.5328C0.646126 13.5225 1.46517 12.7035 2.4755 12.7035C3.48584 12.7035 4.30488 13.5225 4.30488 14.5328C4.30488 15.5432 3.48584 16.3622 2.4755 16.3622C1.46517 16.3622 0.646126 15.5432 0.646126 14.5328Z" fill="url(#paint8_linear)"/>
<path d="M16.0492 23.3853L12.5082 23.3853L12.5082 26.3361C12.5082 27.3139 13.3009 28.1066 14.2787 28.1066C15.2565 28.1066 16.0492 27.3139 16.0492 26.3361L16.0492 23.3853Z" fill="url(#paint9_linear)"/>
<path fill-rule="evenodd" clip-rule="evenodd" d="M44.8625 1.5579V9.43474C45.7567 8.96595 46.7753 8.70062 47.8562 8.70062H49.4268C52.3989 8.70062 54.8096 11.0973 54.8096 14.0555V22.3872C54.8096 25.3454 52.3989 27.7421 49.4268 27.7421H46.8091C43.837 27.7421 41.4262 25.3454 41.4262 22.3872V1.5579C41.4262 0.900488 41.9618 0.368896 42.6208 0.368896H43.6679C44.3269 0.368896 44.8625 0.900489 44.8625 1.5579ZM44.8623 22.3872C44.8623 23.4554 45.7331 24.3226 46.8089 24.3226H49.4266C50.5024 24.3226 51.3732 23.4554 51.3732 22.3872V14.0555C51.3732 12.9874 50.5024 12.1201 49.4266 12.1201H47.856C46.2019 12.1201 44.8623 13.4536 44.8623 15.097V22.3872Z" fill="#2E3338"/>
<path d="M60.3543 8.70062C59.6953 8.70062 59.1597 9.23221 59.1597 9.88963V10.9311C59.1597 11.5885 59.6953 12.1201 60.3543 12.1201H61.9249C62.1333 12.1201 62.3009 12.2879 62.3009 12.4933V26.5531C62.3009 27.2105 62.8365 27.7421 63.4955 27.7421H64.5426C65.2016 27.7421 65.7372 27.2105 65.7372 26.5531V10.9311C65.7372 9.69849 64.7328 8.70062 63.4955 8.70062H60.3543Z" fill="#2E3338"/>
<path fill-rule="evenodd" clip-rule="evenodd" d="M76.5838 27.7421C76.4569 27.7421 76.3315 27.7359 76.2078 27.7239V34.8848C76.2078 35.5422 75.6722 36.0738 75.0132 36.0738H73.9661C73.3071 36.0738 72.7715 35.5422 72.7715 34.8848V12.4933C72.7715 10.3979 74.4791 8.70062 76.5838 8.70062H80.7721C83.7442 8.70062 86.1549 11.0973 86.1549 14.0555V22.3872C86.1549 25.3454 83.7442 27.7421 80.7721 27.7421H76.5838ZM76.2076 23.9494C76.2076 24.1548 76.3752 24.3226 76.5836 24.3226H80.7719C81.8477 24.3226 82.7185 23.4554 82.7185 22.3872V14.0555C82.7185 12.9874 81.8477 12.1201 80.7719 12.1201H76.5836C76.3752 12.1201 76.2076 12.2879 76.2076 12.4933V23.9494Z" fill="#2E3338"/>
<path fill-rule="evenodd" clip-rule="evenodd" d="M96.102 27.7239C96.2257 27.7359 96.3512 27.7421 96.478 27.7421H100.666C103.638 27.7421 106.049 25.3454 106.049 22.3872V14.0555C106.049 11.0973 103.638 8.70062 100.666 8.70062H96.478C94.3733 8.70062 92.6658 10.3979 92.6658 12.4933V34.8848C92.6658 35.5422 93.2014 36.0738 93.8604 36.0738H94.9074C95.5665 36.0738 96.102 35.5422 96.102 34.8848V27.7239ZM96.4779 24.3226C96.2695 24.3226 96.1019 24.1548 96.1019 23.9494V12.4933C96.1019 12.2879 96.2695 12.1201 96.4779 12.1201H100.666C101.742 12.1201 102.613 12.9874 102.613 14.0555V22.3872C102.613 23.4554 101.742 24.3226 100.666 24.3226H96.4779Z" fill="#2E3338"/>
<path d="M61.1195 3.11532C61.1195 1.81092 62.177 0.754661 63.4801 0.754661C64.7833 0.754661 65.8408 1.81092 65.8408 3.11532C65.8408 4.41971 64.7833 5.47597 63.4801 5.47597C62.177 5.47597 61.1195 4.41971 61.1195 3.11532Z" fill="#2E3338"/>
<defs>
<linearGradient id="paint0_linear" x1="7.78693" y1="21.6148" x2="34.9345" y2="21.6148" gradientUnits="userSpaceOnUse">
<stop stop-color="#6ECF96"/>
<stop offset="1" stop-color="#39B764"/>
</linearGradient>
<linearGradient id="paint1_linear" x1="7.78693" y1="21.6148" x2="34.9345" y2="21.6148" gradientUnits="userSpaceOnUse">
<stop stop-color="#6ECF96"/>
<stop offset="1" stop-color="#39B764"/>
</linearGradient>
<linearGradient id="paint2_linear" x1="7.78693" y1="21.6148" x2="34.9345" y2="21.6148" gradientUnits="userSpaceOnUse">
<stop stop-color="#6ECF96"/>
<stop offset="1" stop-color="#39B764"/>
</linearGradient>
<linearGradient id="paint3_linear" x1="7.78693" y1="21.6148" x2="34.9345" y2="21.6148" gradientUnits="userSpaceOnUse">
<stop stop-color="#6ECF96"/>
<stop offset="1" stop-color="#39B764"/>
</linearGradient>
<linearGradient id="paint4_linear" x1="21.3607" y1="16.3033" x2="21.3607" y2="18.664" gradientUnits="userSpaceOnUse">
<stop stop-color="#2E7A46"/>
<stop offset="1" stop-color="#54C37D"/>
</linearGradient>
<linearGradient id="paint5_linear" x1="0.704912" y1="14.5328" x2="27.8525" y2="14.5328" gradientUnits="userSpaceOnUse">
<stop stop-color="#1170DA"/>
<stop offset="1" stop-color="#229EE6"/>
</linearGradient>
<linearGradient id="paint6_linear" x1="0.704912" y1="14.5328" x2="27.8525" y2="14.5328" gradientUnits="userSpaceOnUse">
<stop stop-color="#1170DA"/>
<stop offset="1" stop-color="#229EE6"/>
</linearGradient>
<linearGradient id="paint7_linear" x1="0.704912" y1="14.5328" x2="27.8525" y2="14.5328" gradientUnits="userSpaceOnUse">
<stop stop-color="#1170DA"/>
<stop offset="1" stop-color="#229EE6"/>
</linearGradient>
<linearGradient id="paint8_linear" x1="0.704912" y1="14.5328" x2="27.8525" y2="14.5328" gradientUnits="userSpaceOnUse">
<stop stop-color="#1170DA"/>
<stop offset="1" stop-color="#229EE6"/>
</linearGradient>
<linearGradient id="paint9_linear" x1="14.2787" y1="23.3853" x2="14.2787" y2="28.1066" gradientUnits="userSpaceOnUse">
<stop stop-color="#115CBD"/>
<stop offset="0.50048" stop-color="#1A87E0"/>
</linearGradient>
</defs>
</svg>
