<svg data-name="Layer 1" xmlns="http://www.w3.org/2000/svg" viewBox="0 0 602.26 162.18">
    <path class="logo-centered" d="M296.36,826c-7.07,0-12.72-7.13-12.72-16.09,0-8.79,5.65-15.85,12.72-15.85s12.8,7.06,12.8,15.93-5.64,16-12.8,16m.09-35.26c-10.78,0-20,8.88-20,19.17,0,10.46,9.26,19.41,20,19.41,10.61,0,19.88-9,19.88-19.41,0-10.22-9.26-19.17-19.88-19.17" transform="translate(-238.69 -736.8)"></path>
    <path class="logo-centered" d="M470.51,826.62a18.09,18.09,0,0,0,9,2.6c6.62,0,11.57-4.5,11.57-10.41,0-5.13-1.92-7.66-8.77-11.44l-5.66-3.23c-2.7-1.58-3.58-2.68-3.58-4.73,0-3.24,2.47-5.29,6.21-5.29,2.16,0,3.59.39,6.7,2v3.95h2.95v-9.46H486v2a14.65,14.65,0,0,0-7.26-1.81c-6.37,0-11.4,4.5-11.4,10.18,0,4.65,2.39,7.41,9.41,10.88,6.61,3.31,8.77,5.36,8.77,8.36s-2.88,5.29-6.86,5.29c-2.71,0-4.94-.71-8.13-2.6v-4.1h-2.95v9.86h2.95Z" transform="translate(-238.69 -736.8)"></path>
    <polygon class="logo-centered" points="222.5 84.14 219.56 84.14 219.56 88.32 205.99 88.32 205.99 74.51 216.21 74.51 216.21 78.45 219.16 78.45 219.16 67.5 216.21 67.58 216.21 71.36 205.99 71.36 205.99 58.19 219.08 58.19 219.08 62.29 221.94 62.29 221.94 53.45 219 53.45 219 55.03 193.95 55.03 193.95 57.95 199.94 57.95 199.94 88.55 193.95 88.55 193.95 91.47 222.5 91.47 222.5 84.14"></polygon>
    <polygon class="logo-centered" points="189.15 83.43 186.28 83.43 186.28 88.25 172.88 88.25 172.88 58.12 178.86 58.12 178.86 54.96 160.84 54.96 160.84 58.12 166.82 58.12 166.82 88.48 160.84 88.48 160.84 91.4 189.15 91.4 189.15 83.43"></polygon>
    <path class="logo-centered" d="M382,825.35h-6V795h4.62c4.79,0,7.5,2.83,7.5,7.88,0,4.81-3.35,8.36-7.9,8.36a12.29,12.29,0,0,1-1.59-.16v2.53a18.16,18.16,0,0,0,3.35.32c7.42,0,12.84-4.81,12.84-11.44s-4.47-10.65-11.56-10.65H364V795h6v30.36h-6v2.92h18Z" transform="translate(-238.69 -736.8)"></path>
    <path class="logo-centered" d="M359.88,791.83h-16V795h6v19.72c0,6.38-4.3,11-10.29,11-5.82,0-9.73-4.41-9.73-10.88V795h6.06v-3.16h-18.1V795h6.07v21.45c0,7.41,6.21,12.85,14.75,12.85,9.09,0,15.31-5.84,15.31-14.35V795h6Z" transform="translate(-238.69 -736.8)"></path>
    <path class="logo-centered" d="M272.1,819.36h-2.87l-.08,4c-3.75,2-5.66,2.61-8.37,2.61-8.69,0-15.23-7.1-15.23-16.48,0-8.84,6-15.38,14.11-15.38,3.59,0,6.14.87,9.57,3.31v2.68h2.87v-9.39h-2.87v2.44c-3.67-1.73-5.9-2.37-9.41-2.37-12.44,0-21.13,8-21.13,19.33,0,11.12,8.69,19.16,20.73,19.16a28.28,28.28,0,0,0,12.68-2.6Z" transform="translate(-238.69 -736.8)"></path>
    <path class="logo-centered" d="M518.79,829.28s.91.12,1.42.22,1.11.2,1.37.23,1,.07,1.23.06c0,0,1.09.15,2,.21s1.77.09,2.2.07.92-.07,1.1-.1a4.87,4.87,0,0,0,.58-.15s.69-.15,1.11-.2.87-.07,1.2-.11l.62-.08.56-.07c.32,0,.86-.09,1.19-.11,0,0,1.32.07,1.32-.25,0,0,0-.13-1-.25-.1,0-.47,0-.73,0a6.29,6.29,0,0,1-1.08-.23,4.41,4.41,0,0,0-1-.17c-.38-.1-.74-1-.84-1.31a3.06,3.06,0,0,1-.07-.39,1.7,1.7,0,0,0-.09-.5c0-.09-.16-.34-.2-.45a1.24,1.24,0,0,1-.11-.46,3,3,0,0,1,0-.56,3.55,3.55,0,0,0,.17-.67,2.84,2.84,0,0,0,0-.61,4.3,4.3,0,0,1,0-.91,11.05,11.05,0,0,1,.24-1.25c.09-.34.22-1,.29-1.37l.27-1.51a10.39,10.39,0,0,1,.49-1.63c.19-.49.43-1,.53-1.23s.26-.49.38-.68.29-.5.39-.69a3.58,3.58,0,0,0,.26-.74,2.31,2.31,0,0,1,.11-.43l0-.09s.08-.05.2,0a.79.79,0,0,1,.26.15,2.19,2.19,0,0,0,.32.36c.17.18.42.46.57.65l1.67,2.06c.78,1,1.52,1.88,1.66,2.07s.32.42.4.51.39.57.51.79.31.59.62,1.13a11.71,11.71,0,0,1,.75,1.57c.11.33.27.88.35,1.21a2.9,2.9,0,0,1,.11.64h0a5.49,5.49,0,0,0,0,1,8.81,8.81,0,0,1-.13,1.72,5.39,5.39,0,0,1-.32,1,3.39,3.39,0,0,1-.6.79,2.07,2.07,0,0,1-1,.4,9.6,9.6,0,0,0-1.32.22c-.59.15-.61.22-.62.24a.08.08,0,0,0,0,.07.44.44,0,0,0,.21.09,3.54,3.54,0,0,0,.55,0,8.13,8.13,0,0,0,.84-.09,6.51,6.51,0,0,0,.74-.12,2,2,0,0,1,.67,0l.67,0s1.08.17,1.5.22c0,0,.46,0,1,0a8.32,8.32,0,0,0,1.47,0,15.31,15.31,0,0,1,1.66.12,7.76,7.76,0,0,0,1.06,0c.21,0,1.29.09,1.79.11h.08a6.57,6.57,0,0,0,.76,0c.32,0,.86-.09,1.19-.15s.83-.12,1.12-.15l.15,0a2.87,2.87,0,0,0,.48,0c.58,0,.58,0,.58-.1s.11-.12-.46-.28a1.75,1.75,0,0,0-.27-.05,3.27,3.27,0,0,1-.5-.21c-.12-.1-.38-.34-.58-.51a3.5,3.5,0,0,1-.71-1.12,9.56,9.56,0,0,0-.37-1.19c-.14-.37-.41-1-.59-1.31s-.47-.83-.62-1.09a3.77,3.77,0,0,0-.4-.49,2.47,2.47,0,0,1-.41-.61,9.11,9.11,0,0,0-.71-1.23c-.28-.45-.77-1.18-1.09-1.62a15.54,15.54,0,0,0-1.07-1.28c-.27-.28-1.38-1.73-1.39-1.77l-.37-.51c-.17-.22-.5-.53-.68-.74l-.34-.34c-.17-.17-.83-.76-.83-.76s-.35-.38-.57-.59-.63-.65-.95-1-.86-.9-1.22-1.28-.92-1-1.24-1.33a10.42,10.42,0,0,1-1-1.3,2.78,2.78,0,0,1-.39-.88,3.93,3.93,0,0,1,.07-.63c0-.21.19-.66.31-1a4.94,4.94,0,0,0,.24-.85l.15-.63a2.52,2.52,0,0,0,.17-.64c0-.19,0-.46,0-.6.1-.43.3-1,.3-1l.28-1.27c0-.24.06-.53.07-.86s0-.62,0-.79,0-.12,0-.17,0-1.25-.08-2c0-.07,0-.14,0-.21a3.46,3.46,0,0,0-.09-.65.08.08,0,0,0,0,0,1.86,1.86,0,0,0,0-.2,6.14,6.14,0,0,0-.16-.68,7.11,7.11,0,0,0-.29-1s-.34-1-.4-1.18a4.09,4.09,0,0,0-.32-.81c-.12-.21-.34-.52-.45-.69s-.27-.47-.27-.47c-.33-.38-.11-.58-.11-.58a1.34,1.34,0,0,0,.14-.24,4.63,4.63,0,0,1,.5-.57,5.4,5.4,0,0,0,.84-.89,2.28,2.28,0,0,1,.46-.36l.46-.24a1,1,0,0,1,.22-.17c.08,0,.38-.25.68-.47s.64-.47.77-.58a4.11,4.11,0,0,0,.4-.38,3.54,3.54,0,0,1,.38-.35,10.33,10.33,0,0,1,.92-.62,4.7,4.7,0,0,0,.51-.16,5.06,5.06,0,0,0,.71-.33c.18-.11.61-.4,1-.65.06,0,.6-.48.67-.55a3.31,3.31,0,0,1,.36-.28c.2-.11.44-.21.63-.31a3.79,3.79,0,0,0,.84-.55,6.18,6.18,0,0,0,.48-.5l.22-.21a1.11,1.11,0,0,1,.35-.18c.17,0,.35-.34.54-.46a7.1,7.1,0,0,0,.72-.52c.2-.17.53-.47.74-.68s.66-.71,1-1.13.81-1,1-1.32a10,10,0,0,0,.72-1.38c.19-.45.45-1.2.59-1.66l.34-1.12a2.79,2.79,0,0,0,.1-.56c0-.07,0-.23-.08-.28a.09.09,0,0,0-.08,0,.56.56,0,0,1-.24,0s-.28-.06-.29-.11-.07-.19-.07-.19a.24.24,0,0,1,.16-.24h.28a.63.63,0,0,1,.51.34c.25.5.5.31.5.31a4.24,4.24,0,0,0-.14-1.68.75.75,0,0,1,.33-.82,2,2,0,0,1,.45.58,3.17,3.17,0,0,1,.38,1.33,1.69,1.69,0,0,0,.11.75s.11.06.18-.13a3.34,3.34,0,0,0,.1-.54,4.34,4.34,0,0,1,.17-.65s.19-1.08.55-.44a1.19,1.19,0,0,1,.09.69c-.07.32-.14.71-.16.87a1.88,1.88,0,0,0,0,.57.88.88,0,0,1-.07.54.44.44,0,0,0,0,.44,1.83,1.83,0,0,0,.18.21s0,0,0,.07a1,1,0,0,0-.09.25.64.64,0,0,0,0,.36,5.3,5.3,0,0,0,.31.49,1.34,1.34,0,0,1,.24.58,2,2,0,0,1-.07.5c0,.14-.08.25-.09.26s0,0,.09.05.38-.17.51-.14,0,.38,0,.48a1.05,1.05,0,0,1-.19.33.29.29,0,0,0-.09.26c0,.06.07.11.1.11a.19.19,0,0,1,.09,0,.4.4,0,0,0,.2,0,1.36,1.36,0,0,0,.32-.13l.45-.29a1.85,1.85,0,0,0,.29-.24s0,0,.11,0a.28.28,0,0,1,.14.15,1.74,1.74,0,0,1,0,.43c0,.18,0,.9,0,1s-.22.63-.17.71.38,0,.58-.21.37-.41.56-.41.32.07.29.15.17.07,0,.78a2.59,2.59,0,0,0-.06.49c0,.09-.19.36-.16.45a.21.21,0,0,0,.25.12,3.38,3.38,0,0,0,.57-.29,3.88,3.88,0,0,0,.43-.4.86.86,0,0,1,.4-.27c.08,0,.16.22.19.48a3.41,3.41,0,0,1-.48,1.49s-.18.35.1.21c0,0,.6-.24.74-.63l.17-.25s0-.21,0,.18v.07a3.14,3.14,0,0,1,.05.81,3.39,3.39,0,0,0,0,.81s0,0,0,0,0-.07.08-.1a1.24,1.24,0,0,0,.16-.19l.2-.38a1.47,1.47,0,0,1,.17-.29.08.08,0,0,1,.09,0s.11.61.32,1.22a3.39,3.39,0,0,0,.42,1s.31-.14.06-.79c-.16-.43-.24-1.49-.48-2.25s-.22-1.69-.48-2.43a10.82,10.82,0,0,0-2.43-5.11,2.86,2.86,0,0,0-.28-.47c-.09-.22-.88-.73-1.07-1.06s-.63-1-1-1.5a8,8,0,0,1-.7-1.12,1.71,1.71,0,0,0-.16-.38c-.07-.11-.26-.37-.44-.59s-.41-.6-.57-.81c-.45-.56.94-1,.94-1a3.16,3.16,0,0,1,.83.26l.76.18a3.49,3.49,0,0,1,.55.4.35.35,0,0,1,.08.32c0,.09-.21.17-.4.17a3.31,3.31,0,0,0-.66.07l-.36.1a.06.06,0,0,0,0,.07,1,1,0,0,0,.43.16c.24.05.87.13,1.4.18a6,6,0,0,1,1,.13,3.51,3.51,0,0,1-.7.13c-.38,0-1,.15-1.34.22a1.77,1.77,0,0,0-.66.2s0,.07,0,.07l.19,0a3.36,3.36,0,0,0,.49,0l1,0a2.27,2.27,0,0,1,.63,0s0,0,0,0,0,0,0,.08-.08.11-.19.16a1.68,1.68,0,0,0-.39.3,3.5,3.5,0,0,0-.37.46,2.1,2.1,0,0,0-.21.43.62.62,0,0,0,.09.42c.08.13,0,.06.2.13s.82-.44,1-.42a3.73,3.73,0,0,0,.69,0,.77.77,0,0,1,.75.34,7.51,7.51,0,0,1-.7,1,1.19,1.19,0,0,0-.33.48c0,.09,0,.15.05.15s.05,0,.05,0,.06,0,.14,0a.83.83,0,0,0,.23-.22.61.61,0,0,1,.33-.18,2.4,2.4,0,0,0,.49-.17,2.74,2.74,0,0,0,.47-.29,1,1,0,0,0,.26-.27l0-.07.12-.33.25.25a.66.66,0,0,1,0,.84c-.19.2-.47.54-.63.76a2.47,2.47,0,0,0-.37.6,10.5,10.5,0,0,0,0,1.3,1.53,1.53,0,0,0,.68,1,.66.66,0,0,1,.56-.64,16,16,0,0,0,.52,3.39.49.49,0,0,1,.28.37s.12.67.27.64.18-.19.24-.31.24-.31.34-.52.52-.93.52-.93l.5-.49a5.76,5.76,0,0,0,.59-.7,2.4,2.4,0,0,0,.33-.65,4.58,4.58,0,0,0,.08-.62l.17.16a1.83,1.83,0,0,1,.5,1,.7.7,0,0,1,0,.31.86.86,0,0,1-.12.23l-.25.33-.19.25-.66.57c-.33.29-.83.77-1.11,1.08l-.56.6s0,.06,0,.08.2.09.2.09l.36-.1a3.58,3.58,0,0,0,.58-.23c.15-.09.51-.3.79-.49a1.66,1.66,0,0,1,.56-.3,1.15,1.15,0,0,1-.06.45,5.23,5.23,0,0,1-.3.79,5,5,0,0,0-.32.77,2.06,2.06,0,0,0-.09.6,1.72,1.72,0,0,0,.14.45c.14.06.69-1.07.69-1.07a18,18,0,0,1,1.54-2.09c.17-.27.25-.15.25-.15a10.74,10.74,0,0,0-.46,4.17h0a.94.94,0,0,1,.05.33c0,.12,0,.22.06.22a13.67,13.67,0,0,0,1.09-3.15,3.27,3.27,0,0,1,.12,2s0,.55.05.92.14.71.19,1,.4.79.51.34c.24-.93.51,0,.61.14a3,3,0,0,1,.18.37s0,0,.05,0,0,0,0,0a.19.19,0,0,1,.06-.09.48.48,0,0,0,.1-.21,4.33,4.33,0,0,0,0-.63c0-.27,0-.87-.05-1.34s0-.83.13-.8a1.47,1.47,0,0,1,.37.2l.34.3a3.39,3.39,0,0,0,.33.28c.1.06.17.1.17.08a1,1,0,0,1,0-.15.86.86,0,0,0-.09-.36c-.06-.14-.22-.45-.35-.7s0-.38.33-.27.35.51.44.39a1.66,1.66,0,0,0,0-.65,7.44,7.44,0,0,0-.52-2.09c0-.09-.06-.18-.09-.26-1.58-4.3-8.81-9.72-12.49-12.27a3.5,3.5,0,0,1,.87.06,4.52,4.52,0,0,1,.7.15c.07.07.25.2.33.29s.19.53.42.45.22-.44.28-.49a.71.71,0,0,1,.29-.18c.09,0,.23.09.31.14a.75.75,0,0,1,.26.28c.05.1.13.28.18.39a1.73,1.73,0,0,0,.2.37c.07.09.11.26.17.3s.43-.06.47-.08a1.64,1.64,0,0,0,.28-.3s.31-.74.41-.71a.68.68,0,0,1,.33.28c.26.44-.32,1.67-.15,1.72a.82.82,0,0,0,.5,0c.19-.1.82-.55.82-.54l.08-.12a1.74,1.74,0,0,0,.26-.39c.07-.13.06-.27.09-.27a0,0,0,0,0,0,0,0,0,0,0,1,0,0,1.94,1.94,0,0,1,.38.22,2.77,2.77,0,0,1,.1,1.2.22.22,0,0,0,0,.22.29.29,0,0,0,.24,0,1.73,1.73,0,0,0,.37-.16,1.44,1.44,0,0,0,.38-.29,3,3,0,0,0,.39-1.36,1,1,0,0,0,.06-.19s.07-.05.14-.07.17.06.21.19a2.09,2.09,0,0,0,.24.43l.33.43a1.81,1.81,0,0,1,0,1.13c-.07.17-.1.31-.08.31s0,0,0,0,0,0,.09,0a.5.5,0,0,0,.17-.12,1.92,1.92,0,0,0,.2-.35c.07-.15.21-.49.3-.77s.17-.52.17-.54.05,0,.12,0a.61.61,0,0,1,.23.16,2.9,2.9,0,0,1,.29.48c.1.2.29.66.43,1s.25.68.25.7.06,0,.14,0,.14-.33.14-.74a3.26,3.26,0,0,1,0-.74.11.11,0,0,0,.09-.06s.08,0,.14,0a5.23,5.23,0,0,1,.4.6c.17.27.5.89.75,1.36a5.31,5.31,0,0,0,.5.87l.08,0s.06,0,.09,0a1.09,1.09,0,0,0,.15-.16.8.8,0,0,0,.12-.27,2.87,2.87,0,0,0,0-.57c0-.23-.09-.75-.16-1.18a3,3,0,0,1-.09-.77,0,0,0,0,0,0,0s0,0,.09,0a1.15,1.15,0,0,1,.21.17,5.86,5.86,0,0,1,.37.5c.14.21.42.68.63,1.06s.38.69.38.71,0,0,.1,0a.41.41,0,0,0,.16-.11.82.82,0,0,0,.1-.32,3.54,3.54,0,0,0,0-.71,1.26,1.26,0,0,1,0-.46,0,0,0,0,0,0,0,0,0,0,0,1,0,0s.07,0,.09.09.42.37.48.41.3.77.39.88.25.07.27,0-.15-.54-.16-.62-.26-.77-.3-.91,0-.25,0-.25.09-.07.17-.07a3.71,3.71,0,0,1,.49.11,1.52,1.52,0,0,1,.3.14,4.33,4.33,0,0,1,.37.33.75.75,0,0,0,.41.22c.1,0,.16,0,.15-.1a1.71,1.71,0,0,0-.13-.18,4.89,4.89,0,0,0-.62-.58l-.55-.48a10.94,10.94,0,0,0-1-.73c-.3-.19-.8-.47-1.12-.63a8,8,0,0,1-1.17-.53,5.5,5.5,0,0,0-1-.39c-.08-.07-.39-.11-.58-.2s-.85-.35-1.46-.57-1.63-.53-2.26-.7-1.35-.32-1.59-.35l-1.29-.33c-.09,0-.41-.09-.7-.17l-1.11-.31a5.61,5.61,0,0,1-.82-.3l-.77-.77c0-.1.22-.11.58-.09.65.09,1.62.22,2,.34s1.14.4,1.38.5a1.54,1.54,0,0,0,.91.09,10.14,10.14,0,0,1,2,.25l1.37.77a6.75,6.75,0,0,0,1,.14,5.84,5.84,0,0,0,.93,0l.43-.05s0-.07,0-.16a1,1,0,0,0-.14-.3,2.46,2.46,0,0,0-.4-.4c-.17-.14-.45-.37-.63-.5a2.85,2.85,0,0,1-.55-.51c-.28-.42-.06-.32-.06-.32a.4.4,0,0,1,.19,0l2,.09c1.06,0,1.92.06,1.92,0s0,0,0,0,0,0,0-.08a11.48,11.48,0,0,0-1.74-.41c-1-.18-1.75-.35-1.78-.37s0,0,0,0a0,0,0,0,0,0,0,0,0,0,0,1,0,0l1.79.07c.95,0,1.73.06,1.73,0s0,0,.05,0,0,0,0-.07,0-.08,0-.08l-.25-.05a3.3,3.3,0,0,0-.48-.06c-.15,0-1.29-.13-2.53-.27s-2.81-.28-3.47-.31l-1,0c-1.58-.14-6.42-.29-8.35-.21-.86-.12-.39-.26-.39-.26s.94,0,.94,0a5.87,5.87,0,0,0,.88-.07s0-.08,0-.13a2.2,2.2,0,0,0-.26-.26.81.81,0,0,1-.19-.2,5.75,5.75,0,0,0-1.17-.48c-.45-.13-.82-.3-.85-.3a0,0,0,0,1,0,0,.19.19,0,0,1,.22-.13h.5a7.46,7.46,0,0,1,.89.09,3.7,3.7,0,0,1,1.3.34,12,12,0,0,0,2.62.84,2.28,2.28,0,0,0,.67.13l.77,0c.58,0,.83,0,.83-.28a9.38,9.38,0,0,1-1.42-.42c-.54-.23-.08-.15-.08-.15a4,4,0,0,0,1.69.15s.22-.15.09-.22-.2,0-.75-.42l-.15-.15c-.1-.09.23-.1.25-.12s.21.08.4.22.53.31.75.49c.44.35.5.36.54.36a2.12,2.12,0,0,0-.05-.58,3.16,3.16,0,0,0-.25-.82,5,5,0,0,0-.37-.5l0,0a1.11,1.11,0,0,0-.27-.34,3.46,3.46,0,0,1,1.48,1,2.36,2.36,0,0,1,.33.45s.46.51.29-.05a3.8,3.8,0,0,0-.44-1.51l.22.13.74.35c.09,0,.46.17.56.23a5.21,5.21,0,0,1,.47.27c.12.09.37.28.42.26s.05,0,.09-.05,0-.63,0-.81a1.16,1.16,0,0,0-.14-.61,6,6,0,0,0-.65-.8,3.31,3.31,0,0,1-.44-.51l.52.15c.27.09.35,0,.68.11a2.59,2.59,0,0,1,.89.41,3.11,3.11,0,0,1,.42.52,5.87,5.87,0,0,0,.44.55,2.78,2.78,0,0,1,.28.4,5.16,5.16,0,0,1,.37.83c.26,0,.28-.76.28-.76a4.86,4.86,0,0,0-.51-1.73c0-.14,0-.18,0-.18a3,3,0,0,1,1.38,1.71s.18.27.22.14a2.79,2.79,0,0,0,0-.54,2,2,0,0,0-.84-1.55c-.08-.05-.12-.16-.14-.17a.08.08,0,0,1,0-.07s0,0,0-.07.53.24.53.24.67.36.65.94c0,.37.18-.13.18-.13.21-.76-.15-1-.15-1a2.53,2.53,0,0,0-.5-.79,5.59,5.59,0,0,0-.68-.5c-.26-.18-.56-.38-.54-.41s.19,0,.25,0,.8.15.82.14a0,0,0,0,0,0-.07,3.76,3.76,0,0,0-.78-.44c-.1,0-.33-.1-.46-.14a4.15,4.15,0,0,0-.76-.09,1.91,1.91,0,0,1-.53-.06s0,0,0,0a.36.36,0,0,0,.15-.08,2.78,2.78,0,0,1,.36-.09,3.68,3.68,0,0,1,.69-.19c.62-.07.56-.2.56-.24a5.36,5.36,0,0,0-1-.05c-.55,0-1.34.12-1.82.17a5,5,0,0,1-.88.06,4.6,4.6,0,0,1,.67-.25l1.45-.48a2,2,0,0,0,.78-.37c0-.06-.1-.1-.24-.08a1.34,1.34,0,0,0-.42.15,1.3,1.3,0,0,1-.51.12,2.73,2.73,0,0,0-.61.11l-.38.07-1.22.3a8.29,8.29,0,0,1-1,.19c-.45-.05-.22-.51-.22-.51a12.86,12.86,0,0,1,2.51-1s.37-.31-.25-.21l-.9.13s-1.16.23-1.3.29-.07-.35.08-.37a1.62,1.62,0,0,0,.47-.18,2.37,2.37,0,0,0,.49-.47c.15-.19,1.27-.29,1.2-.47a7.57,7.57,0,0,0-1.11,0l-1,.11c-.44,0-.7.14-.75,0s.12-.11.21-.19a5.76,5.76,0,0,1,.55-.37,5.87,5.87,0,0,1,1-.53c.77-.28.72-.44.72-.46a1.14,1.14,0,0,0-.44,0c-.25,0-.71.15-1,.25s-.92.26-1.15.35a7.58,7.58,0,0,0-1,.4s-.48.22-.76.4l-.57.19a2.57,2.57,0,0,1-.61.15s0,0,0,0,0-.08.06-.17a1.49,1.49,0,0,1,.3-.29c.13-.12.46-.25.6-.38a7.06,7.06,0,0,1,.74-.49l.6-.35a11.18,11.18,0,0,1,1.24-.69c.08,0,.52-.21.76-.34s.06-.11.06-.13a.73.73,0,0,0-.33,0,4.78,4.78,0,0,0-1.11.31,12.08,12.08,0,0,0-1.4.73,8.6,8.6,0,0,0-1.68,1c-.79.48-1.9,1.17-2.46,1.54s-1.22.81-1.42,1c-.56.47-3.07,2.18-3.07,2.18-.35.28-1,.74-1.32,1.05l-.32.32c-.47.4-.86.74-1.08.93,0,0,0,0,0,0a3.82,3.82,0,0,1-.51.37c-.28.18-.47.15-.42-.08a3,3,0,0,1,.36-.76,6.05,6.05,0,0,0,.36-.55,7,7,0,0,1,1.17-1.26c.42-.3,1.31-.89,2-1.31a20.47,20.47,0,0,1,2.17-1.17c.52-.23,1-.44,1-.46a1.2,1.2,0,0,0,.11-.17c0-.07-.07-.11-.22-.09l-.89.11a2.36,2.36,0,0,1-.61,0l-1.34.29a3.15,3.15,0,0,1-.59,0c-.23,0-.39-.07-.35-.15a1.31,1.31,0,0,1,.25-.31c.1-.09.42-.3.71-.49s.72-.48,1-.66a3.36,3.36,0,0,0,.51-.48c.6-.64.54-.65.54-.65s-.26,0-.44,0l-.35,0c-.22,0-1.38.21-1.38.21a1.08,1.08,0,0,1-.28.08,2,2,0,0,0-.44.14c-.12,0-.4.2-.62.32s-.38.26-.4.27-.14,0-.14,0,0,0,0-.11a1.37,1.37,0,0,1,.16-.35,3.57,3.57,0,0,1,.4-.51c.18-.17.39-.48.55-.65a3.19,3.19,0,0,0,.42-.48c0-.09.24-.31.12-.42s-.61.32-1.07.81a4.66,4.66,0,0,1-.93.89c-.11,0-.14-.09-.13-.31s0-.74.06-.93c0-.48.08-1.12.08-1.12a8.39,8.39,0,0,0,0-.89,3,3,0,0,0-.42-1.58,1.63,1.63,0,0,0-.17-.41c-.08-.13-.19-.25-.22-.12a1.12,1.12,0,0,0,0,.4,1.79,1.79,0,0,1,0,.72c0,.15-.15.05-.15.05a.22.22,0,0,0-.08-.09.37.37,0,0,1-.12-.16l-.85-2c-.46-1-.84-1.88-.87-1.88a.83.83,0,0,0,0,.37,5.59,5.59,0,0,0,.17.73l.25.72a6,6,0,0,1,.21.75c0,.22.06.39,0,.39a.17.17,0,0,1-.09,0,2.3,2.3,0,0,1-.16-.4,6,6,0,0,0-.33-.71c-.06-.12-.21-.49-.21-.49s-.24-.44-.53-.91-.51-.87-.51-.89,0,0,0,0a.17.17,0,0,0,0,.13,1.49,1.49,0,0,0,.09.26c0,.09.15.58.35,1.05.27.66.53,1.45.62,1.76.15.49.42,1.23.52,1.69a6.22,6.22,0,0,1,.1.87c0,.18,0,.16,0,.16s-.41-.58-.41-.58c-.12-.3-.37-.78-.47-1.1a4,4,0,0,0-.44-.83c-.08-.16-.25-.47-.34-.6a3.5,3.5,0,0,0-.61-.58c-.11-.09-.15-.16-.26-.23l-.13-.09a7.6,7.6,0,0,0-.77-.35l-.27-.13c-.29-.12-.41-.14-.29,0l.17.12a8.92,8.92,0,0,1,2.44,2.8c0,.13-.12.13-.12.13a9.6,9.6,0,0,0-.84-.75,1.43,1.43,0,0,0-.35-.24,3.44,3.44,0,0,1-.52-.34,5,5,0,0,0-1-.52c-.4-.15-.71-.21-.68-.13s.2.2.4.27a4.23,4.23,0,0,1,.77.4,9.5,9.5,0,0,1,.79.62,6.78,6.78,0,0,1,.59.59,1.67,1.67,0,0,0,.18.2c.44.52.76,1,.76,1l.2.29a.12.12,0,0,1,0,.12c-.11,0-.3-.19-.3-.19-.64-.36-1.54-.82-2.22-1.15a5.57,5.57,0,0,0-1.19-.44c-.59-.12-.75,0-.75,0s1.14.52,1.14.52a12.65,12.65,0,0,1,1.73,1.08l.29.25c.65.59,1.25,1.17,1.58,1.5.13.29,0,.25,0,.25s-.24-.07-.24-.07a10.83,10.83,0,0,0-1.08-.52l-1.17-.51a12,12,0,0,0-2.14-.81c-.32-.11-.37,0-.37,0s.27.23.27.23a4.73,4.73,0,0,1,1,.54s.32.15.52.3a.94.94,0,0,0,.23.12,7.65,7.65,0,0,1,.77.61.2.2,0,0,1,0,.08s0,.16,0,.18,0,.09-.14.11a1.91,1.91,0,0,1-.59-.18l-.47-.12a4.74,4.74,0,0,0-.69-.09s-.3-.06-.18.09.64.29.66.31.08,0,.15,0a4.39,4.39,0,0,0,.45.18c.15,0,.46.15.74.22,0,0,.54.35.19.41l-.75.06a2.54,2.54,0,0,1-.84-.09s-.64-.25-.69.16c0,.11.61.21.77.27a1.59,1.59,0,0,1,.41.31.27.27,0,0,0,0,.09s-1,.16-1,.22a1.2,1.2,0,0,1-.29.15.63.63,0,0,1-.23,0,.26.26,0,0,1-.11-.07,2.74,2.74,0,0,1,0-.63,7.69,7.69,0,0,0-.05-1.21,8.85,8.85,0,0,0-.26-1.22,3,3,0,0,0-.27-.77s-.12,0-.12.05a2.45,2.45,0,0,1,0,.25s0,.19-.08.26a2.42,2.42,0,0,1-.13.36c-.09.16-.19.3-.24.3s-.06-.35-.09-.65a4.53,4.53,0,0,0-.29-.94s-.13-.2-.14.11c0,0,0,.28,0,.48s-.05.21-.07.32-.12.47-.13.59a2.09,2.09,0,0,1-.19.45c-.07.15-.16.29-.2.39a1.22,1.22,0,0,1-.24.33c-.35.39-.37,0-.37,0s.07-.27.13-.59a7.83,7.83,0,0,0,0-1.2,2.21,2.21,0,0,0-.2-.76c-.14,0-.07.44-.1.79a5.19,5.19,0,0,1-.22,1s-.19.49-.26.5a.16.16,0,0,1-.17,0,3.4,3.4,0,0,1-.12-.55,5.64,5.64,0,0,0-.08-.77s0-.29,0-.29,0-.28-.15-.62c0,0-.17-.57-.49-.49a12.44,12.44,0,0,1,.33,2.26c0,.11,0,.23,0,.34s0,.47,0,.51,0,.06-.09,0-.13-.12-.19-.21a3.75,3.75,0,0,1-.2-.46l-.3-.69c-.08-.2-.22-.45-.26-.6s-.46-.92-.46-.92c0-.18-.12-.17-.12-.17a.08.08,0,0,0-.06.05s0,.2,0,.38.28.9.34,1.12.11.47.16.68a2,2,0,0,1,.08.55c0,.09,0,.21,0,.38a3.42,3.42,0,0,0,.37,1,5.68,5.68,0,0,1,.43.88l-.25.07-.47.11-.31,0a.9.9,0,0,1-.18-.35,2.3,2.3,0,0,0-.27-.52,1.76,1.76,0,0,0-.29-.28c-.08-.06-.15-.14-.15-.19a.08.08,0,0,1,.11-.07c.08,0,.5.26.55.21a.79.79,0,0,0-.15-.35,2.34,2.34,0,0,0-.42-.32,5.34,5.34,0,0,0-.5-.25c-.32-.2-.14-.3-.14-.3a.7.7,0,0,1,.29-.06,2.31,2.31,0,0,1,.41,0,.6.6,0,0,1,.22.13c.06.05.14.08.15.1s.09-.07.09-.07a1.78,1.78,0,0,0-.17-.53,2.74,2.74,0,0,1-.19-.92,1.26,1.26,0,0,0-.14-.63,1.72,1.72,0,0,0-.42-.43c-.15-.11-.4-.26-.57-.35a5.54,5.54,0,0,1-.55-.35l-.3-.23s.1-.07.28-.1l.7-.12a1.2,1.2,0,0,0,.39-.08.11.11,0,0,1,.09,0,.07.07,0,0,0,.07-.07s0-.08,0-.08l-1.4-.37a7.25,7.25,0,0,0-1.36-.29l-.69,0s-.33-.09-.16-.24a1.79,1.79,0,0,1,.28-.25,4.58,4.58,0,0,1,.62-.27c.23-.08,1.45-.25,1.45-.3s-.48-.07-.53-.09-.9,0-1.06,0-.55,0-.85,0c-.71,0-.58,0-1.64.06-.28,0-.73.08-1,.13s-.81.28-1.34.37-.83.19-.88.08a11.09,11.09,0,0,1,2.92-1.52,4.41,4.41,0,0,1,.6-.24,1.37,1.37,0,0,0,.33-.14c.13-.06-.14-.07-.14-.07h-.12a6.75,6.75,0,0,0-1.75.46l-.14,0a6.44,6.44,0,0,0-.78.29l-.67.31a1.88,1.88,0,0,0-.33.19c-.2.11-.17,0-.17,0,.13-.27.39-.44.76-.76l.1-.07a4.25,4.25,0,0,0,.53-.42,8.35,8.35,0,0,1,.73-.47,2.62,2.62,0,0,0,.4-.31s.39-.35-.17-.13a11.69,11.69,0,0,0-1.89.9l-.94.54a15.05,15.05,0,0,0-1.39,1,5.39,5.39,0,0,0-.85.68c-.17.2-.29.19-.45.29,0,0-.31.22-.33.07a1.55,1.55,0,0,1,.25-.57c.08-.12.54-.55.61-.68.17-.34.64-.61,1.14-1.14s1.14-1.06,1.22-1.13l.21-.2s.06-.1.05-.13-.09,0-.18,0a1.5,1.5,0,0,0-.4.21l-1,.69a18,18,0,0,0-1.86,1.7,16.33,16.33,0,0,0-1.14,1.18s0,0,0,0a.13.13,0,0,1-.05-.09.57.57,0,0,1,0-.19c0-.07.1-.28.18-.48a4.7,4.7,0,0,1,.37-.62,10.85,10.85,0,0,1,.76-.94,5.63,5.63,0,0,0,.51-.66c.08-.11.31-.39.39-.48s.29-.3.39-.41.23-.24.39-.39a4,4,0,0,0,.45-.52c0-.08.23-.23.1-.37a10.44,10.44,0,0,0-1.86,1.46c-1,.83-1.71,1.59-1.71,1.61s-.15.11-.16,0a.14.14,0,0,1,0-.09s.2-.41.34-.73.26-.4.36-.58.49-.76.49-.76l.37-.52.16-.16a1.84,1.84,0,0,0,.33-.48c0-.16-.12-.08-.36.05a13.67,13.67,0,0,0-1.11.82l-.5.52a3.75,3.75,0,0,0-.31.41c-.13.26-.19.3-.27.47s-.16.27-.22.4-.12.21-.16.15a.84.84,0,0,1-.09-.33,1.75,1.75,0,0,1,.17-.67c.12-.26.25-.46.17-.5s-.54.4-.62.54-.23.49-.53.67-.39.21-.39.24-.15.07-.17.07,0,0,0,0,0-.14.05-.26a1.44,1.44,0,0,0,0-.43,2.6,2.6,0,0,1-.19-.63s.06-.08.06-.08c.19,0,.54-.11.58-.08s.17,0,.17,0-.4-.39-.4-.39,0-.17,0-.17a3.45,3.45,0,0,1,1,.14s.3.15.33.1a.42.42,0,0,0-.17-.2,4.41,4.41,0,0,0-.83-.37s0,0,0-.07a2.59,2.59,0,0,1,1,0c.45.09.7.08.7,0a1.35,1.35,0,0,0-.8-.37l-.8-.09a1.23,1.23,0,0,1-.25-.12c-.07-.06,0-.13.06-.15a.86.86,0,0,0,.26-.07l.4-.08c.16-.06.43-.08.58-.12s.78-.09.8-.09,0-.05-.1-.08a7.05,7.05,0,0,0-.89,0c-.12,0-.34,0-.49,0l-.56.08-.67.08a8.28,8.28,0,0,1-1,.07c-.23,0-.14-.13-.1-.21a.77.77,0,0,1,.28-.22,4.11,4.11,0,0,1,.62-.2c.23-.06.55-.08.55-.16s-.26-.1-.93,0a7.48,7.48,0,0,0-.95.22,4.63,4.63,0,0,0-.6.26,1.27,1.27,0,0,1-.47.16c-.1,0-.16,0-.16,0a1.49,1.49,0,0,1,.43-.37,7.4,7.4,0,0,1,.86-.54,4.47,4.47,0,0,1,.91-.28c.27,0,.49-.12.49-.17s-.15-.06-.33,0a4.92,4.92,0,0,0-.62.06,4.09,4.09,0,0,0-.78.27,9.41,9.41,0,0,0-.94.53l-.89.65-.09.06-.1.06-.22.18c-.13,0-.15-.1-.15-.2a3,3,0,0,1,.6-.94,2.41,2.41,0,0,0,.58-1c0-.15-.57.34-1.22,1.09-.51.58-.94,1.32-1.14,1.26.17-.41.81-1.93,1-2.49,0-.22-.06-.16-.06-.16s-.26.33-.26.33l-.17.27c-.08.16-.2.36-.31.52s-.52.77-.79,1.2-.47.79-.47.77-.25.06-.23-.08,0-.07,0-.11,0-.38.07-.75,0-.83.07-1.05a4.1,4.1,0,0,0,0-.58c0-.1,0-.33-.12-.35s-.25.38-.37.85-.25,1.11-.3,1.42a8.63,8.63,0,0,1-.26,1.11c-.09.29-.23.54-.31.54s-.18-.42-.24-.94a17.41,17.41,0,0,0-.32-1.85,3,3,0,0,0-.33-.9c-.06-.06-.14,0-.14.07a14.34,14.34,0,0,0,.11,2.44,8.12,8.12,0,0,1,.26,2.19l-.05,0L515.44,740c0-.12-.11-.23-.15-.33s-.29-.66-.44-1a1.9,1.9,0,0,0-.36-.64.15.15,0,0,0-.09.1.68.68,0,0,0,0,.31,3,3,0,0,0,.11.38,19.53,19.53,0,0,0,1.31,3.56,1.56,1.56,0,0,1,.11.44c0,.14-.17,0-.37-.12a3.25,3.25,0,0,1-.53-.6,15.51,15.51,0,0,1-1.11-1.48,6.78,6.78,0,0,0-1-1.37c-.08,0-.08.18,0,.41a4.73,4.73,0,0,0,.42.91c.16.27.43.78.76,1.27s.57.85.62.9.26.46.33.57l.22.34s.46.66,0,.51a22,22,0,0,1-2.81-2.66l-.23-.26a2.84,2.84,0,0,0-.29-.29v0h0c-.18-.16-.28-.18-.23,0a3.48,3.48,0,0,0,.37.78,26.36,26.36,0,0,0,2.62,3.48,3.55,3.55,0,0,0,.25.3s.19.28.11.38,0,.11-.09.12a.22.22,0,0,1-.17,0c-1.08-.5-3.58-4-3.58-4s-.12-.06-.12,0a.71.71,0,0,0,.07.31,1.84,1.84,0,0,0,.09.21,27,27,0,0,0,2.06,3.22c.61.7.25.72.26.69a18.82,18.82,0,0,0-3-2.38s-.27,0-.14.14a19.71,19.71,0,0,1,2.28,2.66c-.06,0-.26-.12-.42-.15s-.58-.06-.75-.09-.23,0-.12.12a4,4,0,0,0,.57.3,5.14,5.14,0,0,1,.53.34,1,1,0,0,1,.29.28.42.42,0,0,1,0,.22c0,.07-.21.13-.31.28a3.07,3.07,0,0,1-.43.39l-.57.53a6.13,6.13,0,0,0-.45.51l-.65,1c-.06.11-.3.6-.36.71a1,1,0,0,0-.11.41c0,.13-.07.23-.15.23a.36.36,0,0,1-.19,0,.11.11,0,0,1,0-.07.18.18,0,0,1,0-.09.26.26,0,0,0,.05-.15c0-.05,0-.22,0-.37a1,1,0,0,0-.07-.41.87.87,0,0,0-.22-.24,2.64,2.64,0,0,1-.3-.28,1.59,1.59,0,0,1-.27-.51,2.93,2.93,0,0,1-.11-.71,5.94,5.94,0,0,0-.24-1.27c-.07-.19-.17-.53-.21-.64-.12-.32-.25-.18-.27-.15a1.93,1.93,0,0,0,0,.48c0,.05,0,.36.05.69s0,.75,0,.94a1.53,1.53,0,0,1-.1.52.23.23,0,0,1-.26.12.93.93,0,0,1-.33-.24,5.26,5.26,0,0,1-.37-.53,3.43,3.43,0,0,1-.22-.39,5.4,5.4,0,0,0-.18-.78s-.19-.21-.21,0,0,0,0,0a10.54,10.54,0,0,0,0,1.06l0,.24c0,.05,0,.09-.06.09-.26,0-.36-.33-.58-.6a2.38,2.38,0,0,1-.31-1.12,2.93,2.93,0,0,0-.07-.48.24.24,0,0,0-.18.06.91.91,0,0,0-.26.29,3.3,3.3,0,0,0-.17.81,3.55,3.55,0,0,0,.09.93.31.31,0,0,1-.13.33,17.64,17.64,0,0,0-2.83-1.62c-.22.05-.06.22-.06.22l.26.2a7.75,7.75,0,0,1,1.85,1.45h0a.26.26,0,0,0,0,.15c0,.05-.18.06-.42,0h0a12.51,12.51,0,0,0-1.65-.91l-.35-.17-.19-.07,0,0h0c-.09,0-.1,0,0,.15s.46.46.65.63a1.82,1.82,0,0,0,.32.23c.17.12.34.26.52.37l-.33-.14h0a7.48,7.48,0,0,0-2.56-.81h0l-.45-.15a1.53,1.53,0,0,0-.47-.11.1.1,0,0,0,.05.07.15.15,0,0,1,0,.11,3.41,3.41,0,0,0,.88.41l.52.19,1.34.7a.47.47,0,0,1,.12.21.38.38,0,0,0,0,.12s0,0,0,0,0,0,0,0h0l0,0s-5.91.45-6.83,2.51c-.2.24.08.23.08.23l.62-.35.82-.49a15.81,15.81,0,0,1,2.75-.82l.17.07c.08,0,.14,0,.14.07a0,0,0,0,0,0,0s0,0,0,0a5.94,5.94,0,0,1-.79.44c-.36.18-.91.48-1.36.73h0a11.57,11.57,0,0,0-2,1.35h0l0,0a2.52,2.52,0,0,0-.63.79c0,.06-.07.09-.09.09s0,0,0,.07.11,0,.24,0l.31-.21c.6-.35,1.68-1.06,2.36-1.4l.2-.06c.3-.08.59-.15.64-.15s.09,0,.09,0a0,0,0,0,1,0,0,.11.11,0,0,0-.08.05,3.38,3.38,0,0,1-.44.36c-.22.16-.58.45-.79.64s-.53.51-.72.71a7.73,7.73,0,0,0-.58.74,1.91,1.91,0,0,1-.29.38s0,0,0,.08h0l-.32.4-.08.08a1.85,1.85,0,0,0-.17.29,1.37,1.37,0,0,0-.25.64,4.67,4.67,0,0,0,1-.93c.09,0,.15,0,.16,0l-.06.47a.42.42,0,0,1,0,.08c-.1.29-.14.52-.09.52a.64.64,0,0,0,.28-.23l.09-.12c.22-.21.83-.78,1.21-1.11l0,0s.05,0,.05,0a0,0,0,0,1,0,0,2.39,2.39,0,0,1-.12.67,5.61,5.61,0,0,1-.35,1,3.83,3.83,0,0,1-.39.58,1,1,0,0,1-.15.15c-1,.12-3,.52-3,.52h0a6.53,6.53,0,0,0-.65.17c-.25.08-.45.18-.45.22a1.4,1.4,0,0,0,.62,0c.34,0,.75-.06.92-.05a1.81,1.81,0,0,1,.55.1.29.29,0,0,1,.15.09c-.79.18-2.18.58-2.56,1.18l-.14.2c-.1.07,0,.15,0,.15a4,4,0,0,1,.39-.22c.05,0,.61-.26.75-.34.83-.2,1.31-.27,1.71-.35a.19.19,0,0,1-.06.19c-.16.15-.58.53-.94.84l-1.33,1.18c-.38.35-.8.76-.94.9a4.13,4.13,0,0,0-.39.5,1.27,1.27,0,0,1-.2.25.13.13,0,0,0,0,.11s.14,0,.3,0l.61-.15c.17,0,.32,0,.32.07a.21.21,0,0,1,0,.12l-.14.11a1.63,1.63,0,0,0-.34.21c-.1.08-.32.28-.49.45h0c-.42.36-.91.74-.79.94.46-.17.48-.12,1.07-.34a2.53,2.53,0,0,0,1.25-.27l.94-.37a.27.27,0,0,0,0,.06,7.27,7.27,0,0,0-1.86,3l.66-.55a2.32,2.32,0,0,0,.31-.19l.56-.46c.15-.13.39-.33.53-.43s.27-.17.27-.14a0,0,0,0,0,0,0s0,.09,0,.2a2.24,2.24,0,0,1-.15.41c-.06.11-.24.35-.38.56a11.85,11.85,0,0,0-.61,1.37,2.89,2.89,0,0,0-.25.86s0,.31.09.33l.37-.62a8.16,8.16,0,0,0,.36-.74c.2-.36.6-.92.6-.92s.17-.2.12.09a8,8,0,0,0-.07,2.64,2.47,2.47,0,0,0,.14.7c.15,0,.16-.25.16-.48s0-.42,0-.51,0-.43,0-.45l.2-1.26c0-.16,0-.36.14-.29l.08.45c0,.13.14,1.16.14,1.16a5.2,5.2,0,0,0,.34,1.19c0,.18.15.15.15.15a7.5,7.5,0,0,0,.09-1.43c0,.09,0-.7,0-.7a4.46,4.46,0,0,1,.26-1c.05-.1.15,0,.16,0s.32.42.32.42a1.34,1.34,0,0,1,.15.64,3.28,3.28,0,0,0,.12.78,1.91,1.91,0,0,0,.3.46c.11.12.2.2.2.18s0,0,.07-.07a.21.21,0,0,0,.09-.11,1.89,1.89,0,0,0,0-.3,2.57,2.57,0,0,1,.1-.63,6.18,6.18,0,0,0,.22-.92,5.74,5.74,0,0,0,0-.9c0-.35,0-.93,0-1.29s0-.5.19-.44.14,1.94.45,1.91c0-.1.08-.22.3-1.1l.1-1a2.4,2.4,0,0,1,.12-.74.15.15,0,0,1,.09,0c0,.08.09.16.13.24a4.78,4.78,0,0,1,.26,1.56s0,.55-.05.78c0,0,0,.19.22,0a12.3,12.3,0,0,0,.46-1.6h0a3.14,3.14,0,0,0,0-1.48v0a6.58,6.58,0,0,1,.91,2.27c.2-.07.31-.43.39-.65a3,3,0,0,0,.1-1.12,10,10,0,0,0-.16-1.19,2.75,2.75,0,0,1,.38.48,5.46,5.46,0,0,1,.33.51s0,0,0,0a3.08,3.08,0,0,0,0-.74,2,2,0,0,0-.19-.86.78.78,0,0,1-.18-.46,3.85,3.85,0,0,0-.12-.63,1.78,1.78,0,0,0-.24-.46,1,1,0,0,1-.16-.22s.1,0,.23,0a1.24,1.24,0,0,1,.68.33,5.8,5.8,0,0,1,.39,1,1,1,0,0,0,.23.46,3.82,3.82,0,0,1,.33,1,4.27,4.27,0,0,0,.23.81,0,0,0,0,1,0,0s.06,0,.15-.07a1.8,1.8,0,0,0,.32-.34l.47-.68a8.39,8.39,0,0,0,.36-1.62s0,0,.1,0a.34.34,0,0,1,.13.19,3.83,3.83,0,0,1-.11,1.68,3.2,3.2,0,0,1-.33.74,3.55,3.55,0,0,1-.25.27,12.75,12.75,0,0,0-2.88,2l-.66.6c-.2.18-.38.35-.53.51h0l-.14.13a5.82,5.82,0,0,0-1.43,1.93s.32-.14.73-.29l.4,0c.17,0,.31,0,.31.05s-.12.15-.26.24-.5.36-.78.59a10.5,10.5,0,0,0-1,.91,8.4,8.4,0,0,0-.77,1l-.16.3a2.39,2.39,0,0,0-.45,1.21c0,.21-.09.41-.11.53a4.53,4.53,0,0,0,0,.81s0,.86,0,.88c0,.62.06.68.06.68a29.77,29.77,0,0,1,2.29-3l.2-.13.56-.39a3.92,3.92,0,0,1,.58-.32.85.85,0,0,1,.21-.07,9.59,9.59,0,0,0-2.26,3.52l-.05.15a3.38,3.38,0,0,0-.11,1.15c0,.11,0,.2.07.21s.14-.08.2-.22.16-.39.25-.55v0l.19-.42c.07-.15.27-.38.31-.51.29-.38.55-.49.69-.49l.16.06c.08.06.07.21,0,.33a2.18,2.18,0,0,0-.28.74,4,4,0,0,0,0,1.89s.51,1.16,1.16,1.4c.14,0,0-.26.06-.53a4.64,4.64,0,0,1,.23-.92A5,5,0,0,0,501,779s0,0,.1,0a9.45,9.45,0,0,1,.25.92,15.1,15.1,0,0,0,.6,1.53,3.2,3.2,0,0,0,.65.91,2.42,2.42,0,0,0,.23.11,1.6,1.6,0,0,0,0-.48,2.83,2.83,0,0,0-.35-.84c-.12-.21-.14-.69,0-.75s.23,0,.28,0a5,5,0,0,0,1.56,1.55c.45.14.42-.05.42-.05s-.31-.57-.31-.57c-.59-.79-.2-.84-.2-.84a1.46,1.46,0,0,1,.87-.22c.52,0,1,.06,1,.18a9.23,9.23,0,0,0,1.4,2.73c.28.36,1,1.24,1.19,1.56a13,13,0,0,0,.92,1.22s.24.2.27-.14a3,3,0,0,0-.09-.89l-.12-.43c-.11-.49-.2-.9-.23-1.06v-.06l-.37-2.8s2.11,2.8,2.11,3.88a.5.5,0,0,0,.3-.36l.21-.68a5.67,5.67,0,0,0-.29-3.14s1.07.5,1.45.62a1.78,1.78,0,0,0,.71.15.26.26,0,0,0,0-.14.38.38,0,0,1,0-.18,2,2,0,0,0-.12-.43,3.17,3.17,0,0,0-.39-.64c-.15-.17-.51-.64-.68-.82l-1-1c-.11-.19-.37-.4-.44-.55a2.77,2.77,0,0,1-.17-.48c0-.11,0-.18.18-.22s.52.18.76.46.76.66,1,1c0,0,.56.52.64.56s.68.46,1,.7c0,.07.08.12.12.12h0a.54.54,0,0,1,.13.16s.62,0-1.06-2.11c0-.06-.68-.86-.6-.93s.93.59.95.56l.45.4.14.12.32.3.17.22a.27.27,0,0,0,.19.09c.08,0,.08,0,0-.18a2.13,2.13,0,0,0-.21-.52,5.25,5.25,0,0,0-.45-.48l-.66-.89c0-.06.2.07.2.07a1.65,1.65,0,0,1,.33.14,1.81,1.81,0,0,1,.41.15,3.26,3.26,0,0,1,.47.39,2,2,0,0,0,.34.29,1.25,1.25,0,0,0-.07-.46,3.43,3.43,0,0,0-.37-.85l-.23-.34-.49-.92,0,0a.79.79,0,0,1,.41,0l.6.11c.19,0,.27,0,.19-.18a1.73,1.73,0,0,0-.42-.44c-.14-.11-.44-.32-.64-.49a2.63,2.63,0,0,0-.42-.29l-.58-.46a4.36,4.36,0,0,0-.49-.3,1.46,1.46,0,0,0-.33-.21s0,0,0,0a2,2,0,0,1,.52,0,2.63,2.63,0,0,1,.56.08.1.1,0,0,0,.1,0l.24.14a1.91,1.91,0,0,1,.4.14l.59.29a1.39,1.39,0,0,1,.54.44,1.44,1.44,0,0,0,.28.34.61.61,0,0,0,.29.1c.08,0,.27-.27.42-.6s.27-.62.27-.64.11,0,.24.08l.46.45a.32.32,0,0,0,.16-.25s-.09-.38-.11-.43c-.08-.21.26-.31.47-.18l.42.26.24.13s.14.08.29.65h0s.2.31.46.76a4.75,4.75,0,0,1,.47,1.18,5.83,5.83,0,0,0,.19.65,8.35,8.35,0,0,0,.52.92l0,0c.11.18.2.36.25.46a16.1,16.1,0,0,0,1.1,2.22s.61.84.7,1l.65,1c.14.22.46,1,.77,1.41.18.25.36.48.54.68h0l.16.18c.28.31.76,1,1.26,1.54,0,0,.82.91,1.43,1.66a2.52,2.52,0,0,0,.21.29,9.33,9.33,0,0,0,.67.66l1.34,1.26a2.34,2.34,0,0,1,.55.92,1.09,1.09,0,0,1,0,.45,4.34,4.34,0,0,1-.33.66c-.17.29-.3.59-.38.71a5.07,5.07,0,0,0-.39.64c-.07.11-.33.67-.33.67-.19.34-.53,1.13-.53,1.13a4.27,4.27,0,0,0-.3.67,8.7,8.7,0,0,0-.26.89,8.39,8.39,0,0,1-.38,1.25,6.4,6.4,0,0,0-.32,1.67,12.08,12.08,0,0,0,.07,2,14.07,14.07,0,0,0,.42,1.92,16.68,16.68,0,0,0,.7,1.8c.25.53.39.87.4.91a2.39,2.39,0,0,0,.18.42s.23.39.24.43a10.39,10.39,0,0,0,.52,1.25,3.38,3.38,0,0,1,.08.57,3.06,3.06,0,0,1-.15,1.15l-.27.66c-.23.48-.51,1-.51,1-.2.23-.71.85-1,1.3-.53.78-1.35,2.06-1.83,2.85s-.76,1.2-.76,1.2c-.19.31-.37.61-.37.61s-.13.24-.25.38a3.55,3.55,0,0,0-.34.56,8.11,8.11,0,0,1-.5,1.06c-.06.11-.19.48-.25.59a8.17,8.17,0,0,1-.44,1.05,8.42,8.42,0,0,0-.42.86,14.34,14.34,0,0,0-.82,2.44,5.39,5.39,0,0,1-.33.85c-.19.41-.39.77-.39.77s-.18.36-.26.55a3,3,0,0,0-.2.78,3.59,3.59,0,0,1-.16.77,3.48,3.48,0,0,1-.34.69,2.45,2.45,0,0,1-.4.43,1.46,1.46,0,0,1-.43.22s-1,.21-.43.43m20.09-11.51s.05,0,.46,0a4.52,4.52,0,0,0,.89-.17s1.38-.43,1.49-.44a3.25,3.25,0,0,1,1,.09c.18,0,.37,0,.44.14s.21.25.18.37-.52.15-.76.25-.78.33-1.19.51c-.16.08-.69.34-.73.45s-.24.43.84.17c.4-.1,1.08-.23,1.5-.33,0,0,.79-.19.85-.23s.46-.12.5.06a11,11,0,0,1-1.92.91c-.72.34-1.54.54-1.31,1s3.47-.82,3.72-.8c0,0,.46,0,.45.16,0,0,.14.26-.44.54a1.48,1.48,0,0,0-.18.07l-.23.09-1.12.38a11.46,11.46,0,0,0-1.4.58s-1.46.72-.28.77a6,6,0,0,0,1.2-.26,6.53,6.53,0,0,1,2.07-.54,4.26,4.26,0,0,1,.74,0s.78.3.3.41a10.38,10.38,0,0,1-1.18.19l-.7.13a2.71,2.71,0,0,1-.33.1,4,4,0,0,0-.72.26,2.68,2.68,0,0,1-.35.17h0c-.06,0-.1.06-.1.14a.07.07,0,0,0,0,.06c.08.06.35,0,.48,0s.61-.15.84-.22c0,0,1-.12,1.16-.16a8.92,8.92,0,0,1,1.06-.22c.29,0,.56.06.63.2s-.37.08-.68.19c-.7.23-.7.32-.7.36a.12.12,0,0,0,.11.13,5.43,5.43,0,0,0,1.3,0,1.14,1.14,0,0,1,1,.33s.16.21,0,.3a1.08,1.08,0,0,1-.64.1c-.34,0-.71-.05-1-.05s-1.51.09-1.51.09-.75.06-1.12.12a6.3,6.3,0,0,0-.64.14c-.21,0-.35.13-.87.25-.14,0-.55.07-.61.19a.06.06,0,0,0,0,.06.45.45,0,0,0,.15.19,1.68,1.68,0,0,0,.4.14,2.86,2.86,0,0,0,.59,0A9.72,9.72,0,0,0,544,825a4.92,4.92,0,0,1,2-.08c.16,0,.45,0,.8,0s.73-.05.88,0a2.21,2.21,0,0,1,.52.11s.3.24,0,.38a4.66,4.66,0,0,1-.51.13l-.62.15a2.56,2.56,0,0,1-.44,0,7,7,0,0,0-1.18.19,15.8,15.8,0,0,1-1.65.21c-.4,0-1.33.15-1.39.2a.19.19,0,0,0-.07.13c0,.06,0,.1.93.17.49,0,1.1.07,1.37.07l.78,0s.73,0,1,.09.43,0,.83,0c0,0,.8-.08.89.34,0,.21-.95.29-1.46.29-1,0-1.49,0-1.65,0s-.82.1-1.36.13a3.18,3.18,0,0,0-1.55.37s-.3.21.28.27a11.51,11.51,0,0,0,1.51,0,14.42,14.42,0,0,1,1.92,0,6,6,0,0,0,1.11,0s.87,0,1.49,0a5.09,5.09,0,0,1,.81,0c.22,0,.44.05.49.21s-.53.24-.87.36a11.47,11.47,0,0,1-2,.29l-.74,0h-.91c-1.25,0-1.31-.05-1.77,0s-1.38-.09-2-.18a2.69,2.69,0,0,1-1.07-.3.42.42,0,0,1-.11-.31.74.74,0,0,0,0-.3.49.49,0,0,1,0-.28,2.79,2.79,0,0,1,.18-.39,2.1,2.1,0,0,0,.17-.44,7.22,7.22,0,0,0,.15-1.49,8.72,8.72,0,0,0,0-.92c0-.41-.05-.86-.1-1.16a4.52,4.52,0,0,0-.58-1.72,9.43,9.43,0,0,0-1.09-2c-.07-.12-.23-.4-.39-.62s-.88-1.26-1.63-2.3-2.07-2.77-2.93-3.82-2.14-2.8-2.84-3.88c-.34-.53-.44-.7-.71-1.06s-.35-.78-.45-.89c-.21-.48-.51-1.1-.55-1.16s-.28-.51-.4-.81-.13-.41-.37-1-.57-1.21-.57-1.28a1.12,1.12,0,0,0-.09-.36,7.31,7.31,0,0,1-.23-.75,8.15,8.15,0,0,1-.2-1.17,11,11,0,0,1,0-1.23c0-.34.07-.89.12-1.21a9.22,9.22,0,0,1,.31-1.2c.12-.35.25-.78.3-1v-.07a10.24,10.24,0,0,0,.35-1.1c.13-.26.26-.64.26-.64a4.64,4.64,0,0,1,.31-.69,3.37,3.37,0,0,1,.33-.64,2.07,2.07,0,0,1,.38-.44,1.21,1.21,0,0,1,.55-.11,2.26,2.26,0,0,1,.57.09,1.89,1.89,0,0,1,.48.24,1.54,1.54,0,0,1,.35.34.52.52,0,0,1,.07.12c0,.08,0,.09-.06.11s-.14,0-.24,0l-.31,0a3,3,0,0,0-.43,0l-.39.08a1.56,1.56,0,0,0-.46.22c-.1.1-.2.17-.2.25s.24.17.7.2a1.6,1.6,0,0,1,.6.14,1.28,1.28,0,0,1,.38.34.58.58,0,0,1,.09.3.46.46,0,0,1-.19.33c-.14,0-.35,0-.62,0s-.47,0-.62,0a3.62,3.62,0,0,0-.53.13.54.54,0,0,0-.37.2c0,.07.1.19,1,.14a2.17,2.17,0,0,1,1,.08.35.35,0,0,1,0,.32c0,.14-.36.29-.83.33l-.93.07c-.09,0-.15,0-.15.1s.06.13.18.16a1.82,1.82,0,0,0,.59.15,4,4,0,0,1,.57.12s.44.12.39.35a.75.75,0,0,1-.52.07,5,5,0,0,0-1.24.06c-.54.08-.63.16-.63.21s-.22.4.83.6c.06,0,.21.07.33.11a2.94,2.94,0,0,1,.51.18.91.91,0,0,1,.26.28.94.94,0,0,1,.1.27s0,0,0,0a.27.27,0,0,1-.18.09,2.85,2.85,0,0,1-.55,0l-.33,0s-.45,0-.47.27.6.36.6.36l.34.07s.16.08.1.12-.27,0-.5.09a5.71,5.71,0,0,0-1,.31c-.27.11-.44.16-.46.26s0,.15.41.06a7.25,7.25,0,0,1,1-.08,2.77,2.77,0,0,1,.76.08.94.94,0,0,1,.38.25.42.42,0,0,1,.05.3.89.89,0,0,1-.24.34,1,1,0,0,1-.48.2,3.16,3.16,0,0,0-.58.14,4.35,4.35,0,0,0-.73.32s-.36.19-.26.34a.23.23,0,0,0,.28,0,2.55,2.55,0,0,1,.69-.13c.37,0,.82,0,1,0a2.94,2.94,0,0,0,.56.07c.14,0,.21,0,.22.13s-.25.08-.35.1a2.09,2.09,0,0,0-.59.32c-.21.14-.5.29-.7.43s-.41.28-.45.45c0,0-.2.27.27.22a3.1,3.1,0,0,0,.7-.18,4.56,4.56,0,0,1,.66-.25,2,2,0,0,1,.66-.05.25.25,0,0,1,.21.16c0,.08-.27.16-.55.24,0,0-.76.3-.81.34s-.32.34.5.2l.71-.13a3,3,0,0,1,.48,0,.1.1,0,0,1,.1,0,.11.11,0,0,1,0,.11,1.07,1.07,0,0,1-.37.36,4.83,4.83,0,0,1-.9.43c-.07,0-.69.15-.69.35,0,0-.17.3.55.23a4,4,0,0,0,.53,0l.53-.13a2.89,2.89,0,0,1,.56-.05,2,2,0,0,1,.44.05.85.85,0,0,1,.24.11.34.34,0,0,1,.09.2.56.56,0,0,1-.1.31,1.51,1.51,0,0,1-.34.3s-.25.16-.25.26a.06.06,0,0,0,0,.06,1,1,0,0,0,.61,0,.86.86,0,0,1,.54,0c.14.21-.44.36-.44.36s-.39.19-.66.36a2,2,0,0,0-.42.44c.1.27.34.25,1.33-.14,0,0,1-.37,1.09,0,0,0,0,.14-.1.21a3.81,3.81,0,0,1-.47.33l-.66.4a5.94,5.94,0,0,0-.58.41c-.09.08-.12.14-.1.2s.1.07.21.05.45-.14.65-.18a2.7,2.7,0,0,0,.64-.24s.88-.48,1-.29c0,0,.19.25-.47.47,0,0-.83.33-.58.52,0,0,0,.11.52-.08a3.54,3.54,0,0,1,.5-.14,3.07,3.07,0,0,1,.92,0c.36.06.6.27.6.43a.41.41,0,0,1-.17.33c-.07,0-.09.07-.2.12l-.73.44c-.25.2-.5.31-.6.43a2.51,2.51,0,0,0-.35.47.19.19,0,0,0,0,.21.16.16,0,0,0,.18,0,2.35,2.35,0,0,0,.46-.22,4.44,4.44,0,0,0,.51-.22s1.23-.58,1.56-.39a.26.26,0,0,1,.13.23.78.78,0,0,1-.1.3,1.28,1.28,0,0,1-.31.33c-.41.3-.8.64-.8.64a.87.87,0,0,0-.28.27s-.5.49,0,.57c.19,0,.41-.14.65-.29a7,7,0,0,1,.87-.43,2.08,2.08,0,0,1,.81-.28c.46.07-.1.56-.1.56-.2.14-.67.38-.67.38a2.85,2.85,0,0,0-1.15.87c0,.1,0,.17.11.17a1.88,1.88,0,0,0,.92-.32,7,7,0,0,1,1.1-.52,3.63,3.63,0,0,1,1.38-.07.4.4,0,0,1,.26.36c0,.35-1.34.92-1.34.92s-1,.36-1,.69c0,0-.22.3.41.16,0,0,.58-.16,1-.36a7.31,7.31,0,0,1,1-.17s.5.11-.11.52c-.25.17-.84.28-1.17.47a6.37,6.37,0,0,0-.73.49s-.19.39.16.3c.12,0,.46-.21.8-.32a11.15,11.15,0,0,1,1.29-.36c.36-.07.79-.29.94-.29a1.57,1.57,0,0,1,.44.06c.11,0,.19,0,.23.09l0,0c.06.32-.37.19-.85.37-.09,0-.68.25-.93.36l-.81.33s-.89.39-.66.51m-42.36-56.16a2.56,2.56,0,0,1-.13.26.81.81,0,0,1-.42.26c-.18.05-.51.17-.75.26a2.48,2.48,0,0,1-.62.17c-.11,0-.15-.08-.1-.18a1.26,1.26,0,0,1,.31-.34,4.65,4.65,0,0,1,.7-.37,2.05,2.05,0,0,0,.49-.25s.11,0,.24,0,.23,0,.23,0a.13.13,0,0,0,0,.08.16.16,0,0,1,0,.13m1-3.27a1.75,1.75,0,0,1,.22-.41,1.35,1.35,0,0,1,.21-.27s.12-.23.19-.25.12.09.2.25a2.85,2.85,0,0,1,.24.59.37.37,0,0,1-.1.4,1.48,1.48,0,0,1-.35.13.82.82,0,0,1-.35,0,.44.44,0,0,1-.24-.16.41.41,0,0,1,0-.27m1.14,5.77a1.29,1.29,0,0,1-.39-.36,4,4,0,0,1-.5-.89,4.68,4.68,0,0,1-.24-.81,3.22,3.22,0,0,1,0-.55c0-.15.08-.23.15-.19a.91.91,0,0,1,.23.25c.06.1.16.33.25.51l.05.11a.52.52,0,0,0,.08.11,5.69,5.69,0,0,1,.37,1.39h0a.19.19,0,0,1,0,0c.05.22.05.4,0,.4m27.8,62.19,1.51-.1c.34,0,.87.17.87.17s.43.16,0,.38a5.88,5.88,0,0,1-.62,0,4.25,4.25,0,0,0-.86.13,7.17,7.17,0,0,1-.88.22,4.28,4.28,0,0,0-.76.11,6.49,6.49,0,0,1-.76,0l-.65,0c-.13,0-.32.06-.44.07a6.89,6.89,0,0,1-1.1,0c-.71,0-.71.13-.71.17s0,.09.55.14c.32,0,.83.13,1.28.14.93,0,2,0,2.53,0a9.38,9.38,0,0,0,1.29-.13,4.24,4.24,0,0,1,1.06-.12,2.36,2.36,0,0,1,.45,0c.07,0,.22,0,.25.1s-.28.19-.51.26-.83.34-1.24.46a7.37,7.37,0,0,1-1,.17c-.15,0-.52,0-.83,0-.8,0-.73.19-.73.19s0,.12.8.14l1.48,0c.4,0,.72,0,.74.11a4.61,4.61,0,0,1-1.09.2,13.11,13.11,0,0,1-1.36.17h0c-.52,0-1.94-.15-2.68-.23l-.33,0a4,4,0,0,1-.9-.21,1.83,1.83,0,0,1-.53-.39,1,1,0,0,1-.16-.43,2.57,2.57,0,0,1,0-.63,4.75,4.75,0,0,1,.13-.7c.06-.2.22-.68.36-1.06s.3-.79.36-.92.1-.29.13-.36.31-.72.31-.72a17,17,0,0,1,.87-2.19c.24-.47.69-1.45.69-1.45.33-.84.57-1.52.57-1.52.24-.36.61-1,.91-1.51a16.4,16.4,0,0,1,1.05-1.77c.08-.11.32-.52.41-.66s.34-.53.58-.85.62-.86.84-1.19a7.63,7.63,0,0,0,.59-.91c.06-.17.14-.25.22-.47a4.62,4.62,0,0,1,.3-.5c.07-.11.17-.24.17-.24a.34.34,0,0,1,.17-.19,1.59,1.59,0,0,1,.36-.14,1.19,1.19,0,0,1,.29.08l.43.23a1.42,1.42,0,0,1,.3.22c.25.44-.15.29-.15.29a2.06,2.06,0,0,1-.26,0,2,2,0,0,0-.71,0,.69.69,0,0,0-.21.12.08.08,0,0,0-.05.08s0,.09.29.19a1.45,1.45,0,0,1,.66.21s.21,0,.52.14c.13,0,.15.16.13.28s-.35,0-.8-.09a5.19,5.19,0,0,0-.86-.13s-.25,0-.25.07a.11.11,0,0,0,0,.1,3,3,0,0,0,.58.22,6.31,6.31,0,0,1,.78.29c.18.09.53.08.59.27s-.11.19-.23.23-.08.08-.85-.14a1.93,1.93,0,0,0-.33-.09c-.09,0-.29,0-.35.07s-.12.1-.37.08-.24,0-.25.07,0,.11.25.17a5.29,5.29,0,0,0,1.12.32,1,1,0,0,1,.78.37c.07.11.06.11.05.18s-.35.06-.87,0a4.94,4.94,0,0,1-.54-.07c-.41-.09-.45,0-.45,0a.14.14,0,0,0-.07.18c0,.09.08.13.16.19a3.43,3.43,0,0,0,.39.23s.49.12.44.31-.38,0-.5,0a3.52,3.52,0,0,0-.7,0c-.14,0-.32.08-.34.17a.1.1,0,0,0,0,.1,1.28,1.28,0,0,0,.34.15l.63.18a2.15,2.15,0,0,1,.37.1s.16.27-.16.22a2.22,2.22,0,0,0-.32,0,6.93,6.93,0,0,1-1.16-.18,4.61,4.61,0,0,0-.84-.05c-.31,0-.48,0-.53,0a.15.15,0,0,0-.16.14s.21.31.75.44a12.57,12.57,0,0,1,1.37.4c.27.12.53.17.67.25s.19.1.18.23-.2.15-.3.14a1.27,1.27,0,0,1-.39-.09,5,5,0,0,0-.75-.17c-.27,0-.91-.09-1.42-.13a3,3,0,0,0-.6,0s-.34.07-.17.26a1.49,1.49,0,0,0,.36.19,3.49,3.49,0,0,0,.6.16l.92.19a3.85,3.85,0,0,1,.72.21s.21.05.24.24a1.75,1.75,0,0,0,.09.24.61.61,0,0,0,.18.21.78.78,0,0,1,.1.16,1.4,1.4,0,0,1-.14.54c-.15.34-.54.12-.54.12a1.64,1.64,0,0,0-.74-.22l-1.25,0-.59,0s-.16,0-.2.09,0,.13,0,.19a.54.54,0,0,0,.24.14l.46.1c.17,0,.65.1,1.06.14a1.26,1.26,0,0,1,.79.33.84.84,0,0,0,.49.3l.22,0s.19.1-.12.3-1-.09-1-.09a10,10,0,0,0-2-.08s-.82,0-1,.23a.37.37,0,0,0,0,.23.72.72,0,0,0,.25.1c.09,0,.39,0,.67.06s.9.07,1.38,0a4.07,4.07,0,0,1,.67.06,1.23,1.23,0,0,1,.51,0c.3.15.18.23.18.23a.62.62,0,0,1-.54.27c-.18,0-.56,0-.86.05s-.76.07-1,.11c-.9.13-1,.26-1,.26a.35.35,0,0,1-.26.22,3.72,3.72,0,0,1-.7.06,4.67,4.67,0,0,0-.66,0,1.08,1.08,0,0,0-.38.13.08.08,0,0,0,0,.09s0,.13.88.21l1.46.27a9.25,9.25,0,0,0,1-.07l1.4.12c.21,0,.45,0,.47.11s-.18.2-.38.22-.54.1-.74.1a7.77,7.77,0,0,0-1,.11c-.33.06-.79.13-1,.14s-.64,0-.93,0a5.38,5.38,0,0,0-.75,0,1,1,0,0,0-.31.1.22.22,0,0,0-.08.16c0,.07,0,.09.64.16l1.43.13a8.76,8.76,0,0,1,2.11.15.14.14,0,0,1,0,.14c-.13.17-.31.11-.79.25,0,0-.64.11-.77.41,0,.1-.67,0-.67,0s-.64,0-1.27.07l-.46,0-.55.06c-.55.07-.52.18-.52.18s0,.09.09.13a2.2,2.2,0,0,0,.52.14c.19,0,1.37.06,1.71.09.86,0,1.66,0,1.66,0m20.91-73.61a2,2,0,0,1,.39.29,7.46,7.46,0,0,1,.55.65,15.12,15.12,0,0,1,.88,1.41,8.73,8.73,0,0,0,.61.91,4,4,0,0,1,.19.65,3.89,3.89,0,0,0,.16.76c.07.21.19.54.27.74a6.72,6.72,0,0,1,.23.76c0,.21.06.38,0,.38a0,0,0,0,0,0,0s0,0-.09,0-.14-.36-.42-.63a5.56,5.56,0,0,1-1.42-3.06.35.35,0,0,1,0-.18,2.16,2.16,0,0,0-.1-.47,4,4,0,0,0-.29-.71c-.11-.2-.4-.65-.64-1s-.36-.61-.26-.55m-.69,18a.63.63,0,0,1,.1-.29,1.68,1.68,0,0,1,.38-.27l.39-.21.19-.11a.23.23,0,0,1,.24,0c.08.06.09.15,0,.2a.83.83,0,0,0-.19.22c0,.07-.09.13-.12.13a0,0,0,0,0,0,0,2.47,2.47,0,0,1-.37.37l-.38.35s0,0,0,0l-.11-.08a.22.22,0,0,1-.07-.15,1.51,1.51,0,0,1,0-.27m-.81-9.81.47.07a.09.09,0,0,1,.09.07s0,.07,0,.07a1.2,1.2,0,0,0-.28.19l-.48.17a.63.63,0,0,0-.08.13c0,.06-.07.1-.1.1a.34.34,0,0,1-.14,0,.59.59,0,0,0-.23,0,.6.6,0,0,1-.33-.14l-.08-.07a1.14,1.14,0,0,1,.65-.47,1.45,1.45,0,0,1,.56-.05m-1.31,7.39a2.27,2.27,0,0,1,.08.55,2.51,2.51,0,0,0,0,.55c0,.17,0,.31,0,.31a3,3,0,0,1-.44-.9,10,10,0,0,1-.47-1.59,1.73,1.73,0,0,0-.17-.64.62.62,0,0,1-.16.11l-.33.13a.32.32,0,0,1-.31,0,.17.17,0,0,1,0-.21,3.58,3.58,0,0,1,.44-.36l.72-.52c.21-.15.48-.36.59-.46a1.23,1.23,0,0,0,.21-.22s.07,0,.14.11a.8.8,0,0,0,.42.19c.15,0,.28.07.28.11a.14.14,0,0,1-.06.11.23.23,0,0,0-.08.15,2.37,2.37,0,0,0,0,.44,6.71,6.71,0,0,0,.22.81,3.54,3.54,0,0,1,.16.52c-.22.13-.75-.18-.75-.18a1,1,0,0,1-.26.28,1.13,1.13,0,0,0-.28.28.66.66,0,0,0,0,.46M540,762.15s.27-1.25.67-.93c0,0-.14.36-.15.6,0,0,.09,1.51.31,1.7a1.35,1.35,0,0,1,.39-.52,2.23,2.23,0,0,0,.24-.26,5.94,5.94,0,0,1,.74-.65c.53-.39,0,.35-.27,1.08a2.63,2.63,0,0,0-.24.51c0,.25,0,.43.11.41a1.9,1.9,0,0,0,.38-.13l.5-.3a1.23,1.23,0,0,0,.32-.24s0,0,0,0a1.74,1.74,0,0,1,.09.51,1.8,1.8,0,0,1,0,.56,2.9,2.9,0,0,1-.56.08l-.8.16a2.53,2.53,0,0,1-.5.13c-.36,0-.57,0-.7,0l-.21,0c-.18,0-.33-.1-.5-.13a1.68,1.68,0,0,1-.89-.37c-.1-.14.13-.52.52-.85a2.1,2.1,0,0,0,.51-1.29m4.15-2,.49-.15s0,0,0,0,.11,0,.24.15l.42.31-.37.09a2.81,2.81,0,0,0-.41.13.38.38,0,0,0-.17.13,1,1,0,0,0-.29.27l-.15,0a3.45,3.45,0,0,1-.51-.11,1.56,1.56,0,0,0-.29-.08s0-.07,0-.15a1,1,0,0,1,.31-.26,4.8,4.8,0,0,1,.65-.26m-2-2.88-1.23.15c-.43.08-.05.24-.05.24.27.08.91.32.91.32a4.46,4.46,0,0,0,.93.42,1.09,1.09,0,0,1,.53.46,2.39,2.39,0,0,0-.94,0c-.54.16-.74.32-.44.36s.78.12,1.07.18l.58.12s0,0,0,0-.07.06-.14.09a1.39,1.39,0,0,0-.31.17,5.43,5.43,0,0,0-.42.36.63.63,0,0,1-.44.2,1.69,1.69,0,0,1-.37-.13c-.1-.05-.27-.28-.47-.33a4.33,4.33,0,0,1-.71-.31c0-.16.37-.32.37-.32-.27-.24-1.89.16-1.89.16-.35-.13.29-.43.29-.43.37-.29-.11-.24-.11-.24a2.09,2.09,0,0,0-1.47.59,7.39,7.39,0,0,0-1.31-.35,6.08,6.08,0,0,1-.87-.22c-.25-.09-.83-.3-1.28-.49a2.3,2.3,0,0,1-.77-.4,1.45,1.45,0,0,1,.2-.2,1.89,1.89,0,0,1,.69-.23.37.37,0,0,1,.31,0l.51.16c.39.12,1,.45,1,.44s0-.17,0-.33a2.13,2.13,0,0,0-.15-.49,1.29,1.29,0,0,1-.12-.42s.23-.27.23-.3l.5-.06.1,0a6.54,6.54,0,0,1,1,.4,2.82,2.82,0,0,1,.58.42c.46.2.5.28.5.28.35.13.8.42.85.42s.07-.18,0-.41a2.48,2.48,0,0,0-.15-.59,1.56,1.56,0,0,0-.28-.32.69.69,0,0,1-.17-.19.11.11,0,0,0,0-.07s0,0,0,0,.08-.16.22-.17a5.89,5.89,0,0,1,.82.2,4.63,4.63,0,0,1,1.07.43c.35.19.75.31.75.36m-5.54,7.21c.08.23.24.64.35.91a8.22,8.22,0,0,1,.31.88c.05.22.06.39,0,.39a3.35,3.35,0,0,1-.52-.38l-.26-.39c-.07-.2-.37-.44-.42-.56a2,2,0,0,0-.28-.47c-.11-.13-.38-.43-.62-.66a4.25,4.25,0,0,1-.43-.46s0,0-.05,0a.06.06,0,0,0,0,.06s.2.5.43,1.06a3.07,3.07,0,0,1,.32,1,7.68,7.68,0,0,1-.93-1.11,13.45,13.45,0,0,0-.89-1.11s0,.09,0,.22a1.71,1.71,0,0,0,.24.4l.15.44a.86.86,0,0,1,0,.47c-.35,0-1-1-1-1a2.3,2.3,0,0,0-.3-.48c0-.12-.11-.2-.15-.18a1.43,1.43,0,0,0-.14.41c0,.44-.48-.48-.48-.48a1.41,1.41,0,0,0-.16-.55c-.07-.08-.11-.24-.23-.31a.78.78,0,0,1-.23-.17s-.08,0-.05,0c.12.22,0,.79,0,.85s0,.34-.27.12c-.08-.07-.28-.78-.36-.85a.61.61,0,0,0-.2-.12s0,0,0,0-.55-.39-.55-.12a1.13,1.13,0,0,1,0,.27,4.18,4.18,0,0,0-.12.66.58.58,0,0,1,0,.18c-.07.24-.3-.09-.3-.09a4.81,4.81,0,0,0-.28-.66,1.76,1.76,0,0,0-.4-.75.86.86,0,0,1-.38-.69l.41-.25a3.16,3.16,0,0,1,1.07.13c-.06,0,0,0,.1.07s.49.12.81.18a6.1,6.1,0,0,0,.7.08c.14,0,1-.11,1.06-.13a1.1,1.1,0,0,1,.41,0s.75.38,1.28.59c0,0,.94.25,1.59.41l1.09.34c.5.22,1.32.5,1.34.5s0,0-.08.18-.23.22-.33.18l-.7.08a2,2,0,0,0-.52,0s0,.06-.08.09a.24.24,0,0,0-.08.17,2.46,2.46,0,0,0,.15.56M532.72,771a1,1,0,0,1-.32-.32,1.07,1.07,0,0,1-.12-.47.71.71,0,0,1,.08-.35.5.5,0,0,1,.22-.17c.16,0,.44.16.44.16a1.72,1.72,0,0,1,.41.28,5.41,5.41,0,0,1,.5.59,1,1,0,0,0,.53.39c.13,0,.23,0,.23,0s0,0,0,0a1.49,1.49,0,0,1,0,.52,3.78,3.78,0,0,1,0,.44.08.08,0,0,0-.09-.07c-.05,0-.1.09-.1.19a.27.27,0,0,1-.09.22,1,1,0,0,1-.38,0,1.47,1.47,0,0,1-.49-.22,2.44,2.44,0,0,1-.35-.34c-.09-.1-.22-.25-.31-.33a.25.25,0,0,1-.06-.3.19.19,0,0,0-.1-.25m-1.13-4.08c-.1-.1-.16-.18-.13-.18a.09.09,0,0,0,.07,0,.14.14,0,0,1,.09-.05l.3-.07a2.35,2.35,0,0,0,.42-.15,2.89,2.89,0,0,0,.47-.37c.16-.16.36-.23.44-.16a1,1,0,0,1,.2.22.41.41,0,0,1,0,.3,2.23,2.23,0,0,1-.57.52,1.25,1.25,0,0,1-.77.25,1.21,1.21,0,0,1-.47-.26m.28,7.89a1.57,1.57,0,0,1-.18-.44c0-.17-.15-.47-.22-.67a3.46,3.46,0,0,0-.24-.51,5.94,5.94,0,0,1-.77-1.54,1,1,0,0,0-.34-.39,3.24,3.24,0,0,1-.9-.86,7.16,7.16,0,0,1-.54-2.07,8.45,8.45,0,0,1-.12-1.08,3.29,3.29,0,0,1,.12-.73c.06-.2.13-.23.15-.06a3,3,0,0,0,.09.44,1.14,1.14,0,0,0,.15.26.78.78,0,0,1,.1.41,1.55,1.55,0,0,0,.26.42,6.56,6.56,0,0,1,.64,1c.07.26.39.75.56,1.14a5,5,0,0,0,.36.71,4.42,4.42,0,0,1,.31.73,7.12,7.12,0,0,0,.28.86,7.53,7.53,0,0,1,.31,1.55c.05.55.05.94,0,.87m2.72-7.6s0,.13-.11.25a4.37,4.37,0,0,1-.46.41,1.81,1.81,0,0,1-.43.24,3.27,3.27,0,0,1-.71,0c-.29,0-.54-.09-.54-.13a5.1,5.1,0,0,1,1.07-.44,6,6,0,0,1,1.18-.33M530,758.55a10.08,10.08,0,0,1,1.22-.13l.77-.13a.69.69,0,0,0,.29-.16l.59-.21a1.78,1.78,0,0,1,0,.42,1.6,1.6,0,0,1-.24.54,2.66,2.66,0,0,1-.44.41,3.85,3.85,0,0,1-.61.31l-.38.17s-.08,0-.12-.14a1.38,1.38,0,0,0-.24-.36c-.09-.1-.34-.32-.54-.48l-.3-.25m8.72-7.6a5.67,5.67,0,0,0,.73.41,1.62,1.62,0,0,0,.47.12c.12,0,.22,0,.22.05a3.74,3.74,0,0,0,.28.41.92.92,0,0,0,.5.39,4.58,4.58,0,0,1,.52.06.57.57,0,0,1,.38.19,1.18,1.18,0,0,1,.09.32.46.46,0,0,1-.08.28,5.74,5.74,0,0,1-1.42,0c-.73,0-1.11-.06-1.51-.07-.07,0,.13-.16.13-.16a5,5,0,0,1,.84-.52c.05,0,0-.06,0-.06-.61-.11-2.25.82-2.25.82h-.82s0,0,0,0a6,6,0,0,1,.82-.61,7.64,7.64,0,0,1,.88-.49c.23-.17.11-.18.11-.18-.86-.16-3.48,1.33-4,1.65l-.64.13h-.05c0-.36.39-.5.92-.91l.51-.3a1.19,1.19,0,0,0,.23-.17c.27-.11.72-.32.61-.42a13,13,0,0,0-3,1.14l-.12,0,0,0-.92.5-.61.49-.28,0s-.23-.14-.2-.21h0a.28.28,0,0,1,.11-.15c.06,0,.17-.12.34-.28l.46-.27c.15-.1.31-.17.48-.28s.31-.24.31-.3a.1.1,0,0,0-.1-.11,1.6,1.6,0,0,0-.53.12l-.84.41c-.25.14-.45.29-.48.3a6.11,6.11,0,0,0-.69.56c-.15.1-.44.39-.71.59l-.1.08-1.23.23-.45.21a.22.22,0,0,1-.12-.24,1.17,1.17,0,0,1,.26-.49A2.12,2.12,0,0,1,528,754l.56-.16a1.56,1.56,0,0,1,.53-.16,2,2,0,0,0,.88-.41c.08-.15-.48-.11-.46-.13l-1.56.3-1.08.17s-.06,0,0-.28a.72.72,0,0,0-.3-.31c-.15-.07-.38-.25-.56-.34s-.3-.21-.27-.25a.61.61,0,0,1,.17-.14,3.66,3.66,0,0,1,.37-.16h.25a11.79,11.79,0,0,0,1.24.1l1.9.09a8.91,8.91,0,0,0,1.1,0c.24,0,.46-.08.51-.09.55-.1.26-.37.26-.37a2.33,2.33,0,0,0-.12-.28c-.06-.12-.05-.18,0-.14a.47.47,0,0,0,.27,0,1.17,1.17,0,0,1,.35,0l.42,0a.74.74,0,0,0,.26,0s0-.09,0-.17a1.19,1.19,0,0,0-.25-.27,5.9,5.9,0,0,0-.53-.35l-.42-.23a.07.07,0,0,1,0-.07,2.58,2.58,0,0,1,.66-.09l.55,0c.06,0,.31.07.63.13a3.73,3.73,0,0,0,1.17,0,1.71,1.71,0,0,0,.5-.14.52.52,0,0,0-.16-.12c-.08,0-.29-.12-.39-.2s-1-.3-1-.3a.7.7,0,0,1-.18,0s0,0,0-.08a.57.57,0,0,1,.21-.11,3.18,3.18,0,0,1,.45-.06,1.41,1.41,0,0,1,.86.08,3.06,3.06,0,0,0,.95.38l.39.08.26,0,.21,0h.71a2.39,2.39,0,0,0,.27.26c.33.28.81.64,1.08.82M525,766.4v0l-.08-.17a3.85,3.85,0,0,0-.68-1.49l0,0a.25.25,0,0,1-.05-.13c0-.06,0-.12.06-.12s.07,0,.07,0,.16.05.32,0-.1-.62-.28-.84-.34-.19-.65-.54a11.9,11.9,0,0,1-.79-1,2.63,2.63,0,0,1-.3-.7c0-.19.09-.24.29-.11a4.74,4.74,0,0,1,.64.49,7.72,7.72,0,0,1,.72.84s.86.64,1,.58,0,0,0,0l-.15.09a.74.74,0,0,1-.25,0c-.09,0-.08.11,0,.24a1,1,0,0,0,.28.28l.48.18a1.69,1.69,0,0,1,.2.42s-.3,0-.51.08-.16.25.12.41.46.33.4.39a.58.58,0,0,1-.32.12c-.12,0-.21,0-.21,0s0,0-.06,0l-.06,0c-.1,0-.24.18.24.51v0a.56.56,0,0,1,.22.15,2.21,2.21,0,0,1,.3.54.73.73,0,0,1,0,.43.21.21,0,0,1-.19.12,1.06,1.06,0,0,1-.28-.14c-.09-.06-.17-.14-.17-.19l-.12-.16-.11-.14Zm0,2.86c0,.14,0,.32-.12.37s-.08,0-.23,0a.8.8,0,0,1-.4-.28,1.77,1.77,0,0,1-.14-.7c0-.28.11-.45.27-.4a1.17,1.17,0,0,1,.44.27.74.74,0,0,1,.15.39,1,1,0,0,1,0,.38m-.41-12.06c-1.07.46-2,.72-2,.58a.91.91,0,0,1,.11-.46,2.57,2.57,0,0,1,.71-.52,9.75,9.75,0,0,1,1.86-.61,2.82,2.82,0,0,1,1.36-.14.22.22,0,0,1,0,.24c-.05,0-1,.45-2,.92m-2.33-10.45a3.83,3.83,0,0,0-.49,0c-.14,0-.2,0-.11-.12a.85.85,0,0,1,.2-.17.11.11,0,0,0,.07-.07,2.81,2.81,0,0,1,.16-.29,2.66,2.66,0,0,1,.38-.46,7,7,0,0,1,.77-.58c.29-.19.56-.19.58,0a4.16,4.16,0,0,1,0,.86,13.62,13.62,0,0,1-.32,1.38c-.14.48-.25.91-.25.95s-.07.05-.16,0a1.85,1.85,0,0,1-.36-.17,2.13,2.13,0,0,1-.34-.27.82.82,0,0,1-.19-.28.45.45,0,0,1,.09-.31l.2-.28a.45.45,0,0,0,.06-.17s-.11-.07-.24-.07m-.57,1.58a1.12,1.12,0,0,1,.35.39,1.56,1.56,0,0,1,0,.43v.09a.48.48,0,0,1-.33.09,1.09,1.09,0,0,0-.38-.24.38.38,0,0,1-.14-.55c.13-.2.35-.3.49-.2m-.31,1.69a.14.14,0,0,1,0,.11,9.72,9.72,0,0,1-.75.93,10.56,10.56,0,0,1-.8.85.08.08,0,0,0-.07,0,.09.09,0,0,1-.09,0,1.37,1.37,0,0,1,0-.6,5,5,0,0,1,.12-.87A2.07,2.07,0,0,1,520,750a.8.8,0,0,1,.72-.13,6.05,6.05,0,0,1,.62.14m-.8,4.94a4.4,4.4,0,0,1,.24-.56,2.63,2.63,0,0,1,.39-.53,1.7,1.7,0,0,1,.38-.31,1.18,1.18,0,0,1,.32-.08,1.11,1.11,0,0,1,.42,0,.73.73,0,0,0,.19.07c.06,0,.11.05.11.1s-.05.09-.12.11a1,1,0,0,0-.25.13,3,3,0,0,0-.29.29c-.09.11-.21.31-.31.31s-.61.59-.61.59l-.42.37s0,0,0,0a.09.09,0,0,0-.05-.06.08.08,0,0,1,0-.09s0-.18.09-.32m1.26.83a1.68,1.68,0,0,1,.08-.33l.4-.52c.14-.17.43-.48.65-.71a1.33,1.33,0,0,1,1-.33s.5,0,.52.21c0,.08-.1.21-.17.28a4,4,0,0,1-.51.4c-.21.14-.58.38-.83.51a8.22,8.22,0,0,0-.76.5,2,2,0,0,1-.36.25s0-.12,0-.26m3.36-6.52s5.2-3.06,7.73-3.14a2,2,0,0,0,.33-.07l.57-.11a2.39,2.39,0,0,1,.75,0,6,6,0,0,1,.68.1,4.66,4.66,0,0,1,.56.2,4.6,4.6,0,0,1,.52.32,6.21,6.21,0,0,1,.66.58,10.61,10.61,0,0,1,.75.87c.19.25.3.45.25.45a2,2,0,0,1-.51-.31l-.23-.17-.16-.13s-.43-.24-.43-.24a2.32,2.32,0,0,1-.56-.3,5.06,5.06,0,0,0-.57-.26c-.11.1.1.14.13.27s.27.4.1.36-.52-.14-.76-.22l-1.17-.48c-.41-.18-.68-.24-.62-.13a.86.86,0,0,0,.37.31l.17.14a.8.8,0,0,1,.46.8l-.06,0c-.06,0-.56-.2-.56-.2a1.47,1.47,0,0,0-1.18-.26l-.3,0c-.05,0-.52-.14-.6-.05s.85.92.71,1-.64-.27-1.54-.44c-.21,0-.74.15-1.2.17a6.22,6.22,0,0,1-.89,0,1.2,1.2,0,0,0-.42.1,3.12,3.12,0,0,1-.42.13s0,0,0,0a0,0,0,0,0,0,0H528a2.24,2.24,0,0,0,.47,0l.5.08a1,1,0,0,0,.25,0l.67.26a2.7,2.7,0,0,1,.49.24,0,0,0,0,1,0,.07s-.83.05-1.78.07-1.73.05-1.73.07a1,1,0,0,0,.3.14,6.86,6.86,0,0,0,.85.21c.31.06.68.14.82.18a3.28,3.28,0,0,1,.5.2.89.89,0,0,1,.26.16v.07s0,0-.05,0a.86.86,0,0,1-.2-.06,3.9,3.9,0,0,0-.51-.09c-.19,0-.62-.07-1-.08a3.92,3.92,0,0,0-.52.06,4.91,4.91,0,0,1-.8,0,5.17,5.17,0,0,0-1.12.1,1.12,1.12,0,0,0-.33.14.89.89,0,0,0,.28.14c.16.05.28.13.28.17s-.2,0-.37.14-1.31.24-1.31.24a3.08,3.08,0,0,1-.66.1c-.16,0-.26-.07-.24-.16a1.06,1.06,0,0,1,.16-.31,4.43,4.43,0,0,1,.49-.45c.2-.17.54-.45.76-.62s.65-.41.74-.5m-1.12-7.79a1.28,1.28,0,0,1,.47.31.65.65,0,0,1,.1.5c0,.16-.06.32-.06.34s-.08,0-.18-.06a3,3,0,0,1-.44-.31c-.13-.12-.41-.39-.61-.61s-.19-.37,0-.34a3.82,3.82,0,0,1,.69.17m-8,5.18a4.09,4.09,0,0,0,.16-.47,7.41,7.41,0,0,1,.29-.84,11.08,11.08,0,0,1,.53-1.13,9.6,9.6,0,0,1,.72-1.06,9.73,9.73,0,0,1,.93-1,8.67,8.67,0,0,1,1.13-.8c.33-.19.64-.4.8-.5s.26-.13.34-.19a10.31,10.31,0,0,1,1.56-.52l.52-.1a2.63,2.63,0,0,1,.67.06c.22,0,.29.12.14.18a2,2,0,0,1-.63.17,5.23,5.23,0,0,0-.82.21,3.79,3.79,0,0,0-.83.21c-.24.15-.63.36-.6.47s.28,0,.43,0a3.54,3.54,0,0,1,.52.13,7,7,0,0,1,.71.33c.25.14.41.29.35.34a.84.84,0,0,1-.34.14c-.13,0-.44.07-.69.09l-.93.08c-.26,0-.67.07-.94.11s-.48.21-.42.3.28.14.42.21a7.25,7.25,0,0,0,.78.29,1.82,1.82,0,0,1,.56.23.19.19,0,0,1-.19.28,1,1,0,0,0-.32,0,5.86,5.86,0,0,1-.73.11,3.08,3.08,0,0,0-1,.22c-.4.21-.36.32-.06.43s.34.39.24.44a1,1,0,0,1-.42.12,3.14,3.14,0,0,0-.46,0,1.68,1.68,0,0,0-.43.16,2.45,2.45,0,0,0-.47.43l-.3.36a5.26,5.26,0,0,0-.4.58,3.67,3.67,0,0,0-.28.65c-.08.23-.2.38-.29.38-.39,0-.24-1.27-.24-1.27m2.63,4.77a11.43,11.43,0,0,1-.72,1.84s-.05,0-.11,0a2.44,2.44,0,0,1,0-1.05,10.47,10.47,0,0,1,.45-2c.18-.54.39-1,.45-.91a.53.53,0,0,1,.16.19,5.79,5.79,0,0,1-.22,1.92m-3.18,11.5a1,1,0,0,1,.37,0,.25.25,0,0,1,0,.09.72.72,0,0,1-.17.2l-.45.39a1,1,0,0,1-.43.24c-.08,0-.15,0-.15,0a.23.23,0,0,0,0-.1.3.3,0,0,1,0-.2,4,4,0,0,1,.27-.38.82.82,0,0,1,.57-.24m-2.77-12.52a3.34,3.34,0,0,1,.46-.75c.17-.2.45-.51.61-.69a.57.57,0,0,1,.56-.2,1.38,1.38,0,0,1,.42.33l.34.58a.65.65,0,0,1,.11.52,4.07,4.07,0,0,0-.1.72,1.48,1.48,0,0,1-.12.57,1.06,1.06,0,0,1-.32.28,1.25,1.25,0,0,1-.65.1,2.06,2.06,0,0,1-.75-.22,2.86,2.86,0,0,1-.48-.35.87.87,0,0,1-.19-.34,1.19,1.19,0,0,1,.1-.55m.77,10.5a1,1,0,0,1-.2.49,1.62,1.62,0,0,1-.47.38c-.16.09-.29.13-.29.1a.06.06,0,0,0-.07-.05s0-.2,0-.45a3.1,3.1,0,0,1,.35-.83c.14-.21.34-.28.46-.14a.84.84,0,0,1,.19.5m-.58-4c.07,0,.08.25,0,.54s-.2.8-.28,1.11a2,2,0,0,1-.2.56,0,0,0,0,0,0,0,.66.66,0,0,1-.27,0,2.63,2.63,0,0,1-.52-.15l-.28-.14a5.58,5.58,0,0,1,.7-1,4.55,4.55,0,0,1,.89-1m-1.12,9.86a.49.49,0,0,0-.11.17s-.05,0-.11,0-.23-.22-.38-.51l-.46-.85a5.14,5.14,0,0,1-.29-.69c-.05-.19,0-.24.19-.1a3.27,3.27,0,0,1,.47.49c.1.14.33.48.5.78s.26.6.2.67m.17-10a6.89,6.89,0,0,0-.29.63,5.36,5.36,0,0,1-.51.92,2.21,2.21,0,0,1-.37.38.54.54,0,0,1-.24.06.23.23,0,0,1-.16-.09.37.37,0,0,1,0-.19,2.45,2.45,0,0,1,.24-.46,7.85,7.85,0,0,1,.66-.85c.26-.29.5-.51.56-.49l.12,0s0,0,0,0m-5,1a.89.89,0,0,0,.42-.46c.13-.39,1.54-1,1.54-1a5.5,5.5,0,0,0,.74-.51,4.88,4.88,0,0,0,1-.69c.15-.16.77,0,.77,0,.61,0,.43.3.43.3s-.05.07-.12.11a.93.93,0,0,0-.25.24c-.07.09-.27.42-.44.71l-.62,1.1c-.17.31-.38.65-.46.77a2.26,2.26,0,0,1-.28.3,1.52,1.52,0,0,1-.49.16,7.12,7.12,0,0,1-.78.06c-.23,0-.78,0-1.21-.08s-.76-.19-.74-.33.1-.13.09-.17a2.19,2.19,0,0,1,.42-.51m2.92,5a1.38,1.38,0,0,1-.22.5,1.18,1.18,0,0,0-.19.31s-.07.06-.15.06-.15-.24-.16-.53a8,8,0,0,1,.08-1.06c0-.29.17-.42.28-.28a2.05,2.05,0,0,1,.29.5,1.26,1.26,0,0,1,.06.51m-1.76.27a1.43,1.43,0,0,1-.12.51.93.93,0,0,1-.23.24c-.08.06-.14.12-.14.14s-.07.06-.16.09-.16,0-.16,0a1.28,1.28,0,0,0-.06-.2,1.34,1.34,0,0,1,0-.53c0-.2.11-.56.16-.8a5.08,5.08,0,0,0,.1-.75c0-.18.11-.22.22-.07a2.11,2.11,0,0,1,.32.63,2.25,2.25,0,0,1,.08.75m-8.55,0s-.23-.39-.43-.85h0a5.66,5.66,0,0,1-.22-.57,1.64,1.64,0,0,0-.1-.39c-.07-.22,0-.36.13-.29s.38.18.51.26a.65.65,0,0,1,.29.37c0,.12.07.41.1.64a7.71,7.71,0,0,0,.14.82s.18.52.2.61-.39-.21-.62-.58m1.45-4.36-.09,0a.2.2,0,0,1-.14,0l-.32-.11a1.35,1.35,0,0,1-.37-.24,1.68,1.68,0,0,1-.24-.56c-.06-.22.09-.29.32-.15a3.12,3.12,0,0,1,.56.42,2,2,0,0,1,.23.37c.06.12.08.21.05.21m2.44,20.45a.79.79,0,0,1-.19.2c-.08.05-.29-.05-.47-.24l-.35-.37a.79.79,0,0,1-.29-.34l-.06-.13c-.1-.41.06-.57.38-.37a5.15,5.15,0,0,1,.74.58,1.43,1.43,0,0,1,.24.4.47.47,0,0,1,0,.29m1.08-1a.27.27,0,0,1-.17-.1,1.82,1.82,0,0,0-.28-.24l-.78-.5c-.32-.2-.7-.46-.86-.57a5.6,5.6,0,0,1-.49-.43,1.71,1.71,0,0,1-.3-.45.75.75,0,0,1,0-.44c0-.12.26-.1.48,0a9.51,9.51,0,0,1,.86.65c.25.22.64.6.87.83a7.73,7.73,0,0,1,.63.79,1.21,1.21,0,0,1,.19.35c0,.09-.14.07-.14.07m.65-1.48a4.6,4.6,0,0,1-.66-.49c-.21-.19-.66-.62-1-1,0,0-.51-.59-.57-.67s-.21-.36-.28-.46a1.35,1.35,0,0,1-.16-.29c-.08-.19-.1-.33-.12-.36s.07-.09.07-.09.22.24.74.71,1.16,1.11,1.42,1.41a7.26,7.26,0,0,1,.62.78,1.27,1.27,0,0,1,.17.39c0,.09-.09.1-.24,0m-.23-18a18.25,18.25,0,0,0-3.09,0c-.29-.15-.22-.24-.31-.36s-.44-.62-.66-1-.3-.59-.18-.56a1.35,1.35,0,0,1,.4.2c.1.07.54.2.68.38a5.68,5.68,0,0,1,.46.41s.18,0,.29,0a.49.49,0,0,0,.3-.15.79.79,0,0,0,.13-.32,3.53,3.53,0,0,0,0-.69c0-.27-.08-.74-.13-1a8.33,8.33,0,0,1-.11-.92,2.15,2.15,0,0,1,0-.5,1.59,1.59,0,0,1,.11-.23c0-.06.14,0,.22.11a3.55,3.55,0,0,1,.25.46l.22.47a2.12,2.12,0,0,0,.31.43,1,1,0,0,1,.23.36,1,1,0,0,1,0,.37l.06.28s0,.07.09.07.14-.14.2-.31a2.37,2.37,0,0,1,.38-.64,4.65,4.65,0,0,1,1.32-1.09c.19-.1.34-.17.34-.15a.2.2,0,0,1-.08.11s-.06.16-.11.22a14.45,14.45,0,0,0-.67,1.33c-.08.15-.25.49-.39.77a1.48,1.48,0,0,0-.19.65.81.81,0,0,1,0,.22s0,.08,0,.08a2,2,0,0,0,.34-.4,6.16,6.16,0,0,1,.7-.78c.22-.21.41-.39.42-.42a.11.11,0,0,1,.09,0s0,.12,0,.25a2.64,2.64,0,0,1-.22.51,4,4,0,0,1-.39.6l-.29.36a2.9,2.9,0,0,0-.37.74,2.33,2.33,0,0,1-.49.11m3.19,12.77s-.47.73-.68,1-.23.06-.37,0a1.4,1.4,0,0,1-.44-.28,3.8,3.8,0,0,1-.49-.84,7,7,0,0,1-.43-1.37,10.31,10.31,0,0,1-.16-1.26c0-.3,0-.54.08-.54a.27.27,0,0,1,.16.07l.38.37a.53.53,0,0,0,.21.2l.22.29a4.33,4.33,0,0,0,.49.52,2.59,2.59,0,0,0,.59.36c.16.06.3.17.3.23a.22.22,0,0,1-.09.17.52.52,0,0,0-.14.15.41.41,0,0,0-.05.13.67.67,0,0,0,.28.15c.15.06.33.21.29.32a1.32,1.32,0,0,1-.16.34m1.64-2.39a.39.39,0,0,1-.21-.11,1.81,1.81,0,0,0-.32-.2,2.12,2.12,0,0,1-.37-.24,2.77,2.77,0,0,1-.38-.48,7.83,7.83,0,0,1-.5-1.1c-.16-.42,0-.57.28-.35s.67.52.82.65a4.15,4.15,0,0,1,.44.46,2.2,2.2,0,0,1,.26.8c0,.31,0,.56,0,.56m0-2.33c-.09-.23,0-.29.27-.14a2.24,2.24,0,0,1,.56.48,1,1,0,0,1,.13.42.15.15,0,0,1-.22.15,1.14,1.14,0,0,1-.39-.28,2.75,2.75,0,0,1-.34-.63m2.08,4.72c-.27,0-.71,0-1,0l-.58,0c-.05,0,0-.06,0-.13a1,1,0,0,1,.28-.22,1.25,1.25,0,0,1,.57,0,5.11,5.11,0,0,1,.75.15,1.1,1.1,0,0,1,.36.14.12.12,0,0,0,0,.07,1.09,1.09,0,0,1-.45.06m3-1.1h0a.74.74,0,0,1-.19.08,1.8,1.8,0,0,1-.51,0c-.21,0-.4,0-.43-.05a.87.87,0,0,0-.46.07c-.06,0-.09,0-.08.08a.34.34,0,0,0,.12.13l.12.07s0,0,0,0a.11.11,0,0,0,0,.06,2.87,2.87,0,0,1-.64,0,11.51,11.51,0,0,1-1.21-.18c-.32-.07-.52-.29-.46-.49a2.25,2.25,0,0,1,.26-.52,1.69,1.69,0,0,1,.29-.28,1.3,1.3,0,0,0,.22-.18.27.27,0,0,0,0-.18c0-.06.09-.18.22-.26a.81.81,0,0,0,.23-.18,2.11,2.11,0,0,1,.58,0h0a14.29,14.29,0,0,1,1.62.45l.06,0h0c.17.24.59.94.2,1.31m1-2.62-.18,0a1.57,1.57,0,0,0-.36.17,3,3,0,0,1-1,.4,2.66,2.66,0,0,1-.77-.18.81.81,0,0,1-.34-.12.31.31,0,0,1-.07-.22.91.91,0,0,1,.13-.28,4.65,4.65,0,0,1,.42-.45c.17-.17.41-.39.53-.49a1.1,1.1,0,0,1,.27-.19s0,.05,0,.11a.21.21,0,0,0,0,.24,1.52,1.52,0,0,0,.34.27c.13.07.44.23.7.35a1.33,1.33,0,0,1,.46.29.09.09,0,0,1-.09.08m.68-3.18a3.74,3.74,0,0,1-.35.53,3.16,3.16,0,0,1-.41.42c-.12.09-.23.11-.25,0a1.42,1.42,0,0,1,0-.35,2.16,2.16,0,0,1,.61-.8c.33-.31.59-.47.59-.34a1.6,1.6,0,0,1-.15.51m.65-7a.92.92,0,0,1-.41-.1.8.8,0,0,1-.28-.28.9.9,0,0,1-.07-.36,1.72,1.72,0,0,1,.1-.41,3.8,3.8,0,0,1,1-1.25,1.69,1.69,0,0,0,.34-.29s0,0,0,0,0,0,0,0l0,.48a2,2,0,0,1-.09.52.85.85,0,0,0-.11.14.6.6,0,0,0-.05.34,5.76,5.76,0,0,0,.11.64c.05.22,0,.42-.11.45a2.47,2.47,0,0,1-.42.07m.49,7.83.35.18,0,.09.25.12s.8.32-.05,1c-.06.06,0,.15-.1.15s-.16-.11-.18-.25a1.75,1.75,0,0,0-.13-.44c-.05-.12-.2-.39-.33-.61s-.05-.35.18-.29m1.73,5.17a0,0,0,0,1,0,0l-.42,0a2.63,2.63,0,0,1-.62-.18,1.35,1.35,0,0,1-.41-.32,1.69,1.69,0,0,1-.23-.48c0-.16-.09-.34-.1-.4a.17.17,0,0,1,.07-.19.57.57,0,0,0,.18-.25c0-.1,0-.33.07-.52a1,1,0,0,0-.08-.42c-.05,0-.07-.17,0-.37s.07-.35.09-.33l.14.06a.82.82,0,0,1,.24.27,2.84,2.84,0,0,1,.23.61l.22,1a2.76,2.76,0,0,0,.48,1.07,1.52,1.52,0,0,1,.28.38.05.05,0,0,0-.05,0M532.8,794l.12.19a5,5,0,0,1,.51,1.42c.07.4.1,1.06.19,1.45s.16.74.16.77a5.88,5.88,0,0,1,.09,1s0,1.53-.09,2a4.12,4.12,0,0,0-.06.75,3.32,3.32,0,0,1-.07.48s-.25.32-.25.41a1.65,1.65,0,0,1-.11.46c0,.09-.14.28-.23.43-.19.34-.31.24-.31.24a.91.91,0,0,1-.18-.24,8.19,8.19,0,0,1-.38-.79c-.14-.33-.34-.63-.47-1s-.34-.8-.51-1.32a2.13,2.13,0,0,1,0-.87c.06-.25.12-.9.12-.9a18.5,18.5,0,0,1,.25-2.08,6,6,0,0,1,.41-1.23,9.58,9.58,0,0,0,.41-1s.12-.42.35-.26m-11.21-25.06c.2.07.51-.15.54-.15s.32-.28.44-.27a4.08,4.08,0,0,1,.65.13.07.07,0,0,1,.05.06.44.44,0,0,1-.09.17,2.94,2.94,0,0,1-.34.35c-.13.12-.22.26-.18.32a.88.88,0,0,0,.21.22l.3.22a1.35,1.35,0,0,1,.25.24.72.72,0,0,1,.08.37,1.12,1.12,0,0,1-.12.43,4,4,0,0,1-.26.38,2.8,2.8,0,0,0-.24.41l-.14.18c-.12.17-.66.2-.66.2a2.83,2.83,0,0,1-.34.34c-.07,0-.14.29-.17.35a.72.72,0,0,0,0,.15s.06.17.41,0c0,0,.5-.11.49.33,0,.23-.29.3-.31.3a.62.62,0,0,1-.18.08.41.41,0,0,0-.2.13s-.12.1-.12.16,0,.09.23.12a1.94,1.94,0,0,1,.22,0s.62.34-.31.71c-.5.2-.41.39-.41.41a.3.3,0,0,0,.27.18l.5.06a4.59,4.59,0,0,0,.6,0c.12,0,.33,0,.39.07s0,.09.14.24.5.44,0,.6a1.62,1.62,0,0,1-.42.08c-.14,0-.22,0-.3,0a.35.35,0,0,0-.12.23c0,.15.44.23.57.25a.78.78,0,0,1,.46.16c0,.14,0,.17-.34.3a4.16,4.16,0,0,0-.69.31s-.25.37.41.26c0,0,1-.12,1.19.12,0,0,.57.34-.1.49-.42.1-.52.19-.53.22a.08.08,0,0,0,0,.1.36.36,0,0,0,.17.09l.25,0a2.05,2.05,0,0,0,.34,0c.06,0,.12,0,.18,0s-.2.15-.41.27c-.05,0-.5.28-.5.42s0,.16.11.17a1.19,1.19,0,0,0,.45-.07,7.68,7.68,0,0,1,.83-.23,2.78,2.78,0,0,1,.41,0s.19.05-.27.29c-.12.06-.58.46-.55.68s.37.25,1,.12c0,0,.65-.14.66,0a.44.44,0,0,1,0,.38,1.34,1.34,0,0,1-.23.22l-.53.27c-.39.18-.39.23-.39.26s.06.1.15.1.44-.08.76-.15.61,0,.68.15-.18.17-.18.17a.22.22,0,0,0-.13.05s-.15.07-.15.1a.19.19,0,0,0,.07.13c.06,0,.3,0,.39,0s.14,0,.08.11a.44.44,0,0,1-.16.13l-.2.12-.1,0a.25.25,0,0,0-.11.21s.09.31.6.25c.15,0,.5-.06.83-.09a.8.8,0,0,1,.41.05s.23.16-.21.31c0,0-.41.21-.41.35s-.06.21.42.18l.28,0s.11.06-.06.19a3.22,3.22,0,0,0-.33.28c-.09.1-.23.25-.37.43,0,0-.22.27.1.3a1.43,1.43,0,0,0,.66-.23c.13-.11.55-.31.63-.2s-.58.61-.64.64a.43.43,0,0,0-.19.31c0,.1,0,.15.13.15a1.34,1.34,0,0,0,.46-.28,1.68,1.68,0,0,1,.58-.25,1.41,1.41,0,0,1,.48-.07.84.84,0,0,1,.29.12.23.23,0,0,1,0,.36,3.07,3.07,0,0,1-.49.28c-.58.3-.38.3-.38.3s.06,0,.8-.13a1.53,1.53,0,0,1,1,.11.72.72,0,0,1,.3.23c.07.13-.13.18-.25.24s-.49.21-.7.29c-.65.29-.5.37-.5.37a.44.44,0,0,0,.27,0,2.39,2.39,0,0,0,.43-.1l.4-.12a2.18,2.18,0,0,1,.45,0,2,2,0,0,1,.42.07s.07,0,.07.06a0,0,0,0,1,0,0,1.42,1.42,0,0,1-.33.23c-.13.07-.44.22-.69.33-.08,0-.4.24-.4.39s0,.33,1,.27a2.48,2.48,0,0,1,.57-.08s.71-.19.71-.06-.67.4-.07.44a2.73,2.73,0,0,0,.35,0h.14a.09.09,0,0,1,.08.12c-.06.1-.29.16-.66.26-.54.14-.71.21-.75.32s-.08.13.23.13l.78,0c.34,0,.58-.12.72,0s-.18.13-.33.21-.39.22-.39.31a.06.06,0,0,0,0,.06.36.36,0,0,0,.22.06l.6-.07a2.12,2.12,0,0,1,.65,0,.64.64,0,0,1,.28.21s.08.07-.08.17c0,0-.27.15-.52.26s-.32.22-.32.25,0,.1.44.1l.47-.09a2,2,0,0,1,.35-.05c.06,0,.1.13.1.13s-.18.19-.29.27l-.61.42a4.38,4.38,0,0,1-.42.27h0a.12.12,0,0,0-.11.14c0,.11.23.15.42.17a2.53,2.53,0,0,0,.75,0l.75-.12a.42.42,0,0,1,.3.06.07.07,0,0,1,0,.06.23.23,0,0,1-.19.2,2.38,2.38,0,0,0-.49.15c-.14.06-.4.27-.62.41s-.28.21-.34.34-.06.2.49,0c.24-.07.67-.15.94-.22s.37,0,.41,0-.06.25-.28.34-.4.23-.69.34a1.22,1.22,0,0,0-.3.11,2.54,2.54,0,0,0-.34.19.12.12,0,0,0,0,.11s.05.08.47,0a1,1,0,0,1,.5,0,.56.56,0,0,0,.32.17,1.53,1.53,0,0,0,.45,0s.17,0,.23,0a.18.18,0,0,1,0,.29l-.1.06h0c-.17,0-.39.07-.51.11s-.3.08-.3.19-.05.17.23.17a3.51,3.51,0,0,0,.4,0,5.7,5.7,0,0,1,.6,0s.42-.08.45.15c0,0,0,.19-.36.22l-.55.11-.26.08c-.19.06-.25.1-.48.17-.41.13-.41.32-.41.32a.08.08,0,0,0,0,.06.62.62,0,0,0,.41.12l.58,0a1.43,1.43,0,0,1,1,.23s.28.33-.17.52a1.62,1.62,0,0,1-.78.1h-.16l-.6,0a.19.19,0,0,0-.2.17c0,.13.24.22.38.25a2.51,2.51,0,0,0,.71.08l.29,0,.34,0c.34,0,.31.4.31.4a.78.78,0,0,1,0,.21s0,.33-.93.1h0a1.93,1.93,0,0,0-.58,0c-.18,0-.47.08-.52.21a.13.13,0,0,0,0,.13.86.86,0,0,0,.39.2,4.68,4.68,0,0,0,.52.08h0s1.25.18,1.08.43v0a1.4,1.4,0,0,1-.07.17c-.05.08-.17.08-.77.12a6.24,6.24,0,0,0-.7.11c-.27.06-.56.24-.56.43v.18c0,.15.22.24.38.25l.65.07H536c.2,0,.76.09.77.34,0,0,.13.38-.64.38a6.58,6.58,0,0,0-1.12.06c-.3,0-.48.12-.51.32,0,0-.16.28.24.43a2.82,2.82,0,0,1,.3.11h0a.71.71,0,0,0,.26.17c.09,0,.32.09.5.13a.48.48,0,0,1,.2.08s.07.11-.1.22a.65.65,0,0,1-.37.09h-.83a2.5,2.5,0,0,0-.46.08l0,0h0a.07.07,0,0,0,0,.06.16.16,0,0,0,.06.1l.22.13a.51.51,0,0,1,.19.24,1.62,1.62,0,0,0,.28.34,1.18,1.18,0,0,0,.64.28s.56,0,.54.22a.64.64,0,0,1-.18.38,1.21,1.21,0,0,1-.72,0l-.87-.24a3.38,3.38,0,0,1-.49-.18,1.43,1.43,0,0,1-.32-.23.84.84,0,0,1-.17-.25,1.27,1.27,0,0,1,0-.46c0-.18.24-.48.31-.72.17-.58.24-.88.24-.88s0-.18.08-.39a3.69,3.69,0,0,0,.18-.86.38.38,0,0,0,0,0c0-.23,0-.62,0-.86s.12-1.22.12-1.22a4.3,4.3,0,0,0,0-.74l-.13-.7,0-.47a6.22,6.22,0,0,0-.06-.79,4.34,4.34,0,0,0-.17-.83,5.62,5.62,0,0,0-.26-.7s-.28-.79-.42-1.15l-.48-.94c0-.13-.33-.77-.33-.77a4,4,0,0,0-.45-.74c-.17-.23-.48-.6-.68-.82a5.3,5.3,0,0,0-.43-.54c-.11-.19-.49-.71-.5-.76a4.47,4.47,0,0,0-.38-.44c-.22-.3-1.23-1.18-1.34-1.32a6.43,6.43,0,0,0-.57-.63l-1.89-2.12s-.64-.81-1.12-1.33a2.06,2.06,0,0,1-.22-.28c-.11-.22-.39-.7-.63-1.09s-.63-1.2-.89-1.58-.62-.82-1-1.33c-.58-1-1.16-2.28-1.56-3a6.22,6.22,0,0,1-.34-.93,5.44,5.44,0,0,0-.33-.79,3.56,3.56,0,0,0-.33-.86,4.94,4.94,0,0,1-.18-1c0-.23-.07-.56-.08-.75a1.36,1.36,0,0,1,0-.46.5.5,0,0,1,.17-.21,1.13,1.13,0,0,1,.35-.11c.12,0,.18,0,.37,0s.34.15.34.15c0,.19-.15.21-.26.26s-.16.12-.13.18a.68.68,0,0,0,.19.15.18.18,0,0,1,.11.13s-.1.13-.23.19a1.5,1.5,0,0,1-.28.11s0,0,0,.06a.19.19,0,0,0,.11.09,1.17,1.17,0,0,0,.32,0,4.24,4.24,0,0,0,.64-.16c.22-.07.31-.31.4-.46.21-.33-.06-1.19-.06-1.19a.87.87,0,0,0-.07-.49c-.07-.21-.21-.55-.31-.75a2.25,2.25,0,0,1-.14-.93,7.2,7.2,0,0,1,.12-.91,2.72,2.72,0,0,1,.18-.53c.06-.1.19-.11.29,0a1.51,1.51,0,0,1,0,.42.54.54,0,0,0,.09.35.62.62,0,0,1-.06.45s-.36.59-.13.67m7.78,4.8s.55.64.54.89a1.89,1.89,0,0,0,0,.47,10.63,10.63,0,0,0-1.11,3.27s0,.27.12.13c0,.06.22-.19.24-.23s.1-.09.13-.19a1.36,1.36,0,0,1,.21-.35,2.35,2.35,0,0,1,.35-.34,2.32,2.32,0,0,1,.4-.23.51.51,0,0,1,.26,0c.17,0,.13,1.06.09,1.66-.06.89,0,1.6.13,1.59s.13-.1.18-.17a3.77,3.77,0,0,0,.26-.5c.1-.21.3-.7.47-1.09s.25-.68.26-.7.11-.05.19,0a.8.8,0,0,1,.25.28c0,.07.11.35.11.35a8.63,8.63,0,0,1,.38,1.49s.06.74.12,1.15a1.77,1.77,0,0,0,.06.27.16.16,0,0,0,.16,0,.68.68,0,0,0,.19-.1,1.31,1.31,0,0,0,.19-.3c.06-.12.15-.33.2-.46a1.89,1.89,0,0,1,.16-.32.52.52,0,0,1,.15-.12.4.4,0,0,1,.21,0,.52.52,0,0,1,.23.13,2.34,2.34,0,0,1,.27.45,1.23,1.23,0,0,0,.08.25l.27.77a2.91,2.91,0,0,0,.12.32c.08.21.15.4.22.57a.87.87,0,0,0,0,.17c0,.18.15.33.23.33s.1-.12,0-.26-.06-.23-.09-.29a.89.89,0,0,0,0-.26c0-.13-.11-.74-.11-.74,0-.29,0-.49.1-.46a.92.92,0,0,1,.28.2l.37.42a2.94,2.94,0,0,0,.28.28,2.49,2.49,0,0,1,.49,1.4c.12.33.33.13.33.13a6,6,0,0,0-.71-2.57l-.23-.6c-.07-.26-.4-.51-.63-.91-.44-.75-.71-1.35-.61-1.33a1.55,1.55,0,0,1,.37.13l.52.29a2,2,0,0,0,.45.21,1.06,1.06,0,0,0,.28,0c.09,0,0-.47-.24-1s-.47-1.08-.54-1.26a3.68,3.68,0,0,1-.18-.69,1.57,1.57,0,0,1,0-.59,4.76,4.76,0,0,0,.16-.49,4.15,4.15,0,0,0,.07-.88,4.46,4.46,0,0,0-.05-.63c0-.17,0-.63,0-.63a1.58,1.58,0,0,0,0-.52c-.14-.44.31-.18.31-.18a20.3,20.3,0,0,1,.62,2.23,4.48,4.48,0,0,0,.64,1.3,5.8,5.8,0,0,1,.64,1.09,8.33,8.33,0,0,1,.32,1c.06.3.18.54.26.54a2.77,2.77,0,0,0,.38-1.11,2.71,2.71,0,0,1,.37-1.11.77.77,0,0,1,.37.3,2.52,2.52,0,0,1,.24.33s.6.4.67.59a3.47,3.47,0,0,1,.07.36,3,3,0,0,0,.26.9,2.24,2.24,0,0,0,.22.3,3.17,3.17,0,0,0,.59,1c.23.28.08-.48.08-.48a1.53,1.53,0,0,0,0-.22,2.5,2.5,0,0,0-.07-.44c0-.16-.06-.32-.08-.44a1.57,1.57,0,0,1-.08-.54l.08,0s.07,0,.13,0a5.15,5.15,0,0,1,.37.38c.15.17.41.48.57.7a6.76,6.76,0,0,0,.72.86c.1,0,.08-.11.06-.15s-.49-.88-.65-1.17a9.17,9.17,0,0,0-.67-1l-.77-1a8.1,8.1,0,0,1-.75-1,3.51,3.51,0,0,0-.44-.46l-.54-.5-.06-.09a6.88,6.88,0,0,0-.46-.54,3.94,3.94,0,0,1-.35-.41,1,1,0,0,1-.12-.27.51.51,0,0,1,0-.27,1,1,0,0,1,.25-.27c.1-.08.25,0,.32.12s.2.26.28.26.18-.1.22-.22a2.91,2.91,0,0,1,.23-.47,4.09,4.09,0,0,0,.25-.49.8.8,0,0,0,.06-.45,1.58,1.58,0,0,1,0-.51,1.55,1.55,0,0,0-.17-.71c-.12-.23-.31-.62-.42-.88a4.36,4.36,0,0,1-.24-.69,1.36,1.36,0,0,1,0-.44.49.49,0,0,1,0-.1c.23.24.47.5.65.73a.36.36,0,0,0,0,.34,1.29,1.29,0,0,1,.2.53,5,5,0,0,1,.35.69,4.63,4.63,0,0,1,.12,1.46c0,.35,0,.63.06.63s.09-.12.16-.21a3.86,3.86,0,0,0,.36-.64,8.67,8.67,0,0,0,.46-1.47,12.7,12.7,0,0,1,.16,1.39,6.31,6.31,0,0,0,.43-.69,2.82,2.82,0,0,0,.07-.32c0-.12,0-.41.06-.46a.53.53,0,0,1,.24-.12.6.6,0,0,1,.22,0,.85.85,0,0,1,.26.21,2.14,2.14,0,0,1,.31.56.9.9,0,0,1-.33.85c-.27.25-.71.7-1,1a5,5,0,0,0-.51.62s-.09.07-.08.11-.11.19-.24.33l-.09.06a.7.7,0,0,0-.15.21,5.47,5.47,0,0,0-.42.57s0,0,0,.06a.07.07,0,0,0,0,.07.06.06,0,0,0,0,.06s0,0,0,0,.08,0,.19,0a.92.92,0,0,0,.32-.24l.09-.13a2.94,2.94,0,0,0,.57-.45,1,1,0,0,0,.23-.19s.32-.39.7-.81a4.91,4.91,0,0,1,.75-.74.92.92,0,0,0,.23.07c.06,0,.14.1.21.22a11.66,11.66,0,0,1-.15,1.81c.1,0,.38-.6.57-1.08l.09-.27c0-.11.06-.24.1-.33s.15-.53.15-.53a.13.13,0,0,1,.09-.09.73.73,0,0,1,.21.25,4.33,4.33,0,0,1,.22.76,14.74,14.74,0,0,1,.21,1.64,2.56,2.56,0,0,0,.18,1,.53.53,0,0,0,.17-.21,4.85,4.85,0,0,0,.16-.66c0-.27.12-.91.16-1.41a5.81,5.81,0,0,1,.12-.92s.09.13.13.29l0,0a.38.38,0,0,0,0,.05.78.78,0,0,0,.26.43,2.38,2.38,0,0,0,.56.32,5.06,5.06,0,0,0,.68.19l.58.12a.75.75,0,0,0,.49-.1,2.39,2.39,0,0,0,.41-.35,2.9,2.9,0,0,1,.26-.27.63.63,0,0,1,.19-.1.66.66,0,0,1,.22,0,1.14,1.14,0,0,1,.28.12l.07.06a.54.54,0,0,0-.15.17.5.5,0,0,1-.08.11.09.09,0,0,0,0,.07c0,.07.11.17.17.22a.15.15,0,0,1,.06.12,0,0,0,0,1,0,0l-.17.12a.12.12,0,0,0-.09.13.21.21,0,0,0,.1.15.21.21,0,0,1,.06.08.22.22,0,0,0,0,.06c0,.09-.08.12-.34.07,0,0-.56,0-.59.2,0,0,.08.13.1.15s.32.14.33.19.15.17-.13.19a1.12,1.12,0,0,0-.41.1s-.39.43.3.46a3.09,3.09,0,0,1,.83.12c.14,0,.24.13.25.21a.11.11,0,0,1,0,.12,1.11,1.11,0,0,1-.57.27,3.76,3.76,0,0,0-.62.12c-.05,0-.32.1-.34.2s.13.16.17.22-.17.07-.29.1-.33.15-.33.29a.14.14,0,0,0,.05.1.44.44,0,0,0,.34.07,1.81,1.81,0,0,1,.6.08c.19.05.31,0,.34.13l0,.12a.4.4,0,0,1-.18.2,2.39,2.39,0,0,0-.29.23,1.2,1.2,0,0,1-.62.23,1.1,1.1,0,0,0-.51.15h0s0,.1,0,.16.39.13.43.27-.31.11-.41.09a2,2,0,0,0-.5,0c-.61.07-.38.37-.38.37a1,1,0,0,0,.3.36c.09.06.12.19.17.27s.11.16.05.23-.56-.1-.61-.12a1.16,1.16,0,0,0-1,0s-.35.21.55.67c0,0,.34.33-.57.21a3.41,3.41,0,0,0-1,0,5,5,0,0,0-.51.17c-.31.14-.27.21-.27.24a.37.37,0,0,0,.32.24c.17,0,.49.07.64.12s.24.13.13.26a1.05,1.05,0,0,1-.32.29,1,1,0,0,1-.67,0,1.7,1.7,0,0,0-.8-.09,1.27,1.27,0,0,0-.32.14c-.18.13.1.29.1.29.21.18.18.32.18.32,0,.22-.46.24-.46.24a2.31,2.31,0,0,1-.35-.09.53.53,0,0,1-.21,0l-.21-.05a2.64,2.64,0,0,0-.58-.09.45.45,0,0,0-.23,0,.1.1,0,0,0-.06.1c0,.06.07.1.19.14a.94.94,0,0,1,.36.2,1.06,1.06,0,0,1,.23.32.94.94,0,0,1,.08.35.06.06,0,0,1,0,0,.24.24,0,0,1-.18,0,3.41,3.41,0,0,1-.52-.13l-.75-.29c-.27-.11-.43-.13-.48-.07a.08.08,0,0,0,0,.11,1.4,1.4,0,0,0,.26.31l.29.29a.43.43,0,0,1,.09.28.33.33,0,0,1-.13.21.82.82,0,0,1-.27.09.65.65,0,0,1-.29,0c-.64-.28-.7-.13-.7-.13s-.12.14.08.24c0,0,.35.13.34.27a.42.42,0,0,1-.14.25.83.83,0,0,1-.7.15,1,1,0,0,1-.3-.18,2.12,2.12,0,0,0-.51-.29c-.18-.09-.27-.06-.3,0s-.06.1,0,.22.21.4.27.54a.33.33,0,0,1,0,.13c0,.08,0,.23-.11.31a.37.37,0,0,1-.32,0s-.29-.18-.3-.15l-.13-.05a1.87,1.87,0,0,0-.31-.13.38.38,0,0,0-.26,0,.35.35,0,0,0-.16.26.25.25,0,0,0,.05.19l.22.24a1.29,1.29,0,0,1,.21.29.93.93,0,0,1,.07.22.2.2,0,0,1-.09.19c-.22.17-.56-.1-.56-.1-.16-.13-.41-.32-.42-.34a3.42,3.42,0,0,0-.46-.25c-.12,0-.27-.1-.43-.15s-.19-.05-.24,0,0,.11.06.17a2.53,2.53,0,0,0,.43.34s.29.24.49.43,0,.28,0,.28a.46.46,0,0,1-.39.09l-.87-.21a2.72,2.72,0,0,1-.59,0c-.1,0-.28,0-.33,0a.09.09,0,0,0,0,.08,1.33,1.33,0,0,0,.26.32c.11.11.32.31.45.46a1.77,1.77,0,0,1,.3.46.06.06,0,0,1,0,.07.18.18,0,0,1-.17,0,1.57,1.57,0,0,0-.44,0,.13.13,0,0,0-.09.07.23.23,0,0,0,0,.17l.17.26s.08.16-.12.26-.28-.17-.39-.27-.47-.44-.63-.62a4.15,4.15,0,0,1-.43-.52.45.45,0,0,1,0-.39,2.19,2.19,0,0,1,.32-.43l.32-.29.3-.33c.09-.09.42-.33.68-.55l1-.87a7.86,7.86,0,0,1,1-.7,7.46,7.46,0,0,0,.92-.57,21.58,21.58,0,0,1,2-1,17.74,17.74,0,0,0,1.64-.88s.87-.61,1.39-.89c0,0,.5-.29.6-.32a5.76,5.76,0,0,0,.7-.42,13.44,13.44,0,0,0,1.12-.88,10.82,10.82,0,0,0,1.06-1.1,5.61,5.61,0,0,0,.58-.84,4.15,4.15,0,0,0,.37-.58,4.72,4.72,0,0,0,.42-.59,5.1,5.1,0,0,1,.25-.51,1.65,1.65,0,0,0,.23-.33c.06-.11.18-.37.26-.59s.18-.47.2-.57a1.9,1.9,0,0,1,.15-.36c.06-.1.14-.27.19-.38a1.11,1.11,0,0,0,.08-.43.15.15,0,0,0-.08-.15s-.11,0-.21.07a2.28,2.28,0,0,0-.34.42,2.88,2.88,0,0,0-.17.53,9,9,0,0,1-.4,1c-.11.22-.3.57-.42.84s-.51.84-.68,1.12a2.36,2.36,0,0,0-.26.35c-.21.32-.48.7-.6.85a6.83,6.83,0,0,1-.51.52c-.15.14-.76.61-1.35,1.06s-1.09.84-1.12.86c-.58.25-3,1.54-3,1.54-1.21.63-2.33,1.23-2.49,1.33a3.66,3.66,0,0,0-.41.29c-.19.1-.44.37-1.14.86-.34.24-.65.47-.88.66l-.49.36c-.18.11-.52.39-.67.5s-.88.78-1,.91a.75.75,0,0,1-.38.15l-.23-.12c-.11-.11-.67-.71-1.5-1.7-.6-.72-1.6-1.88-1.71-1.95a2,2,0,0,1-.35-.28c-.11-.12-.44-.52-.72-.89s-.81-1.23-1.28-1.84c-.3-.39-1.29-1.82-1.29-1.82s-.26-.49-.47-.86-.61-1.11-.89-1.67a20.9,20.9,0,0,1-.84-2,8.48,8.48,0,0,1-.37-1.38,1.45,1.45,0,0,1,.08-.59l.11-.24h0a.91.91,0,0,1,.22,0,2.78,2.78,0,0,0,.49-.09,2.23,2.23,0,0,0,.49-.29,3.38,3.38,0,0,0,.45-.43,3,3,0,0,1,.26-.29.52.52,0,0,1,.18-.1.13.13,0,0,1,.15.09,1.18,1.18,0,0,1,0,.37c0,.15,0,.48,0,.74a2.39,2.39,0,0,0,0,.48s0,0,0,0,.08,0,.17,0a1.81,1.81,0,0,0,.36-.23c.11-.09.33-.31.49-.48,0,0,.38-.42.44-.4a1,1,0,0,1-.06.43,6.33,6.33,0,0,1-.33.92l-.42.94a3.29,3.29,0,0,0-.24.74c0,.36.07.28.07.28s.18-.11.31-.15A3,3,0,0,0,527,775c.13-.08.43-.3.66-.47a3.44,3.44,0,0,1,.47-.32s.05,0,.05,0-.07.24-.14.49-.25.75-.38,1.11a4.08,4.08,0,0,0-.19.65.07.07,0,0,0,0,.06s0,0,.1,0a.55.55,0,0,0,.19-.14,2.88,2.88,0,0,0,.29-.41c.11-.17.41-.38.54-.71a2.4,2.4,0,0,0,.41-.85v-.05a1.81,1.81,0,0,0,.06-.42c0-.15,0-.29,0-.31s0,0,.1,0ZM548.85,771a2.45,2.45,0,0,1,.22-.48c.08-.11.2-.14.28-.06a1.17,1.17,0,0,1,.21.36,1.7,1.7,0,0,1,.07.44,1.46,1.46,0,0,1-.07.42,1.48,1.48,0,0,0-.07.23s-.08,0-.18,0a.91.91,0,0,1-.3-.1.61.61,0,0,1-.18-.31,1.08,1.08,0,0,1,0-.5m2.71-8.08c-.06.25-.5.65-.48.65s-.41.3-.23.45c0,0,.58-.2.58-.09s-.39.44-.55.67-1.37.53-.59,1.06c.38.26-.16.55-.14.56a6,6,0,0,0-.6.41s-.86.24-.31.63c.12.08-.8.71-.89.65s-.07-.38-.07-.38c0-.23,0-.14,0-.72s-.1-.67-.1-.67a.94.94,0,0,0-.26.28.22.22,0,0,1-.2.14c-.09,0-.16,0-.16-.07a.17.17,0,0,1,.08-.12.4.4,0,0,0,.12-.14,6.35,6.35,0,0,0,.13-.86c0-.42.29-1-.17-.73a.21.21,0,0,1-.24,0s0,0,0,0a1.26,1.26,0,0,1,.19-.4,1.64,1.64,0,0,0,.22-.63,1.91,1.91,0,0,0-.07-.44c0-.12,0-.21,0-.21s.14,0,.14.08.5.28.53.52c0,0,.13.59.47.23.1-.1.17-.53.32-.7s0-.59.28-.88.33.24.72.05l.64-.94s.46-1,1-.65a9.45,9.45,0,0,1-.36,2.27m1.33-8.61s-.06,0-.14,0-.19-.17-.25-.37a7.09,7.09,0,0,1-.18-1.05,4.09,4.09,0,0,0-.19-1,3.31,3.31,0,0,0-.34-.57,1.82,1.82,0,0,1-.22-.32s0,0,0,0l.14-.3s.08-.1.19-.15.19-.09.19-.11.08,0,.18.13a1.8,1.8,0,0,0,.42.26c.13.05.22.12.19.15s0,1,0,1.1c0,.41.18,1,.19,1.38s0,.68-.13.72-.15.09-.15.12m.93,10.21c-.09.31-.3.23-.3.25a3.07,3.07,0,0,1-.17-.42,7.31,7.31,0,0,1-.26-1.06c0-.33,0-.6.22-.6a1.42,1.42,0,0,1,.39,0,.37.37,0,0,1,.12.14,1.75,1.75,0,0,1,0,.42,5.47,5.47,0,0,1,0,1.23m0-8.75a.18.18,0,0,1-.13-.17c0-.06.36-.9.79-1.86s.85-1.67.95-1.59a.81.81,0,0,1,.21.38,2.22,2.22,0,0,1-.16.78,8.83,8.83,0,0,1-.85,1.54c-.36.54-.72,1-.8.92m10.12,19.92a4.77,4.77,0,0,1,.47-1.16c.18-.3.43-.53.57-.5s.21.19.18.37a2.87,2.87,0,0,1-.2.6c-.08.14-.32.5-.53.78s-.45.51-.51.51-.05-.27,0-.61m-4.77-19.55s2.24-1.59,2.58-1c.1.18-1.42,1.35-1.7,1.49l-.7.07a2.55,2.55,0,0,1-.33.13c-.15,0-.6.3-.79,0Zm2.5,8.35-.16.08a.56.56,0,0,1-.24,0,12.77,12.77,0,0,1-2.33.15,13.11,13.11,0,0,1-2.68-.37,0,0,0,0,0,0,0s0,0,0-.07a.71.71,0,0,1,.23-.11l1.55-.24c.57,0,1.26,0,1.53,0a8.46,8.46,0,0,1,1,.16c.26.06.63.17.81.22a2.61,2.61,0,0,1,.35.14s0,0,0,.07m8.5,3.27a9.63,9.63,0,0,1-1-.21l-1.58-.37c-.21,0-.57-.11-.8-.17a7.37,7.37,0,0,0-.83-.15,2.09,2.09,0,0,0-.56,0,.54.54,0,0,0-.24.06c-.08.06-.1.18-.18.18a3.56,3.56,0,0,1-.62-.38,1,1,0,0,0-.65-.16.14.14,0,0,0-.1.07.46.46,0,0,0,0,.11s0,0,0,0,0,0,0,0-.33-.19-.38-.36-.64-.26-.64-.26a.86.86,0,0,1-.51-.33c-.09-.15-.13-.19-.12-.23s.22,0,.42,0l1.18.13A12.22,12.22,0,0,1,565,766l1.64.37c.67.14,1.47.35,1.79.45s.83.28,1.13.41a2.9,2.9,0,0,1,.6.3.4.4,0,0,1,0,.18c0,.07,0,.11-.06.11" transform="translate(-238.69 -736.8)"></path>
    <path class="logo-centered" d="M808.82,826.81a18.08,18.08,0,0,0,9,2.6c6.62,0,11.57-4.49,11.57-10.4,0-5.13-1.92-7.66-8.77-11.44-1.68-.95-3.59-2.05-5.66-3.23-2.7-1.57-3.58-2.68-3.58-4.73,0-3.24,2.46-5.29,6.21-5.29,2.16,0,3.59.39,6.7,2v3.95h2.95v-9.46h-2.95v2A14.59,14.59,0,0,0,817,791c-6.37,0-11.4,4.5-11.4,10.18,0,4.65,2.39,7.41,9.42,10.88,6.61,3.31,8.77,5.36,8.77,8.36s-2.88,5.29-6.86,5.29c-2.71,0-4.94-.71-8.13-2.6V819h-2.95v9.86h2.95Z" transform="translate(-238.69 -736.8)"></path>
    <path class="logo-centered" d="M705.58,826c-7.07,0-12.72-7.13-12.72-16.09,0-8.79,5.65-15.85,12.72-15.85s12.8,7.06,12.8,15.93-5.64,16-12.8,16m.09-35.26c-10.78,0-20,8.88-20,19.17,0,10.46,9.26,19.41,20,19.41,10.61,0,19.88-9,19.88-19.41,0-10.22-9.27-19.17-19.88-19.17" transform="translate(-238.69 -736.8)"></path>
    <path class="logo-centered" d="M660.25,826.62a18.09,18.09,0,0,0,9,2.6c6.62,0,11.57-4.5,11.57-10.41,0-5.13-1.92-7.66-8.78-11.44l-5.67-3.23c-2.7-1.58-3.58-2.68-3.58-4.73,0-3.24,2.46-5.29,6.21-5.29,2.16,0,3.59.39,6.71,2v3.95h2.95v-9.46h-2.95v2a14.64,14.64,0,0,0-7.26-1.81c-6.37,0-11.4,4.5-11.4,10.18,0,4.65,2.39,7.41,9.41,10.88,6.61,3.31,8.77,5.36,8.77,8.36s-2.88,5.29-6.86,5.29c-2.71,0-4.95-.71-8.14-2.6v-4.1h-2.95v9.86h2.95Z" transform="translate(-238.69 -736.8)"></path>
    <polygon class="logo-centered" points="412.25 84.14 409.3 84.14 409.3 88.32 395.74 88.32 395.74 74.51 405.95 74.51 405.95 78.45 408.9 78.45 408.9 67.5 405.95 67.58 405.95 71.36 395.74 71.36 395.74 58.19 408.82 58.19 408.82 62.29 411.69 62.29 411.69 53.45 408.74 53.45 408.74 55.03 383.7 55.03 383.7 57.95 389.68 57.95 389.68 88.55 383.7 88.55 383.7 91.47 412.25 91.47 412.25 84.14"></polygon>
    <polygon class="logo-centered" points="554.76 88.68 547.64 88.68 547.64 58.36 559.86 58.36 559.86 62.77 562.97 62.77 562.97 53.64 559.86 53.64 559.86 55.21 529.07 55.21 529.07 53.64 526.05 53.64 526.05 62.77 529.07 62.77 529.07 58.36 541.29 58.36 541.29 88.68 534.17 88.68 534.17 91.6 554.76 91.6 554.76 88.68"></polygon>
    <path class="logo-centered" d="M739.66,809.08V795h5.85c4.35,0,6.69,2.44,6.69,6.85s-2.59,7.25-6.61,7.25Zm23.26,16.22c-1.84,0-3.35-.95-4.85-2.92l-7.79-10.7c5.52-1,9-4.81,9-10.08,0-6.38-4.35-9.77-12.47-9.77H727V795h6.28V825.3H727v2.92h18.91V825.3h-6.27V812.23h4.1l9,12.68c2.09,3,2.76,3.31,6.44,3.31h6.11V825.3Z" transform="translate(-238.69 -736.8)"></path>
    <path class="logo-centered" d="M592.24,809.08V795h5.85c4.36,0,6.69,2.44,6.69,6.85s-2.59,7.25-6.61,7.25Zm23.26,16.22c-1.84,0-3.35-.95-4.86-2.92l-7.79-10.7c5.53-1,9-4.81,9-10.08,0-6.38-4.35-9.77-12.47-9.77H579.6V795h6.28V825.3H579.6v2.92h18.91V825.3h-6.27V812.23h4.1l9,12.68c2.09,3,2.76,3.31,6.44,3.31h6.11V825.3Z" transform="translate(-238.69 -736.8)"></path>
    <path class="logo-centered" d="M838,791.74a4.73,4.73,0,0,1,1.55,1,4.85,4.85,0,0,1,1,1.56,5.11,5.11,0,0,1,0,3.84,4.74,4.74,0,0,1-2.58,2.58,5.17,5.17,0,0,1-3.86,0,4.74,4.74,0,0,1-2.58-2.58,5.13,5.13,0,0,1,0-3.84,4.85,4.85,0,0,1,1-1.56,4.73,4.73,0,0,1,1.55-1,5.17,5.17,0,0,1,3.86,0Zm-3.58.65a4,4,0,0,0-2.17,2.22,4.53,4.53,0,0,0,0,3.29,4.13,4.13,0,0,0,6.76,1.33,4.14,4.14,0,0,0,.87-1.33,4.44,4.44,0,0,0,0-3.29,4.14,4.14,0,0,0-.87-1.33,4.21,4.21,0,0,0-4.59-.89Zm-.12,6.69v-5.65h2.17a2,2,0,0,1,1.4.4,1.49,1.49,0,0,1,.44,1.16,1.72,1.72,0,0,1-.11.64,1.34,1.34,0,0,1-.31.47,1.5,1.5,0,0,1-.45.3,2.45,2.45,0,0,1-.55.16l1.68,2.51h-.81l-1.59-2.51H835v2.51Zm2.24-3.12a1.82,1.82,0,0,0,.54-.11.82.82,0,0,0,.38-.3,1,1,0,0,0,.14-.56.93.93,0,0,0-.11-.49.85.85,0,0,0-.3-.3,1.25,1.25,0,0,0-.43-.15,3,3,0,0,0-.5,0H835v2h.92Z" transform="translate(-238.69 -736.8)"></path>
    <path class="logo-centered" d="M454.27,896.46l1.34-1.36a.5.5,0,0,1,.77,0,2.24,2.24,0,0,0,1.7.82c1.05,0,2.06-.57,2.06-2.34v-12.4a.49.49,0,0,1,.49-.49H463a.49.49,0,0,1,.49.49v12.4c0,3.58-2.39,5.38-5.4,5.38a4.93,4.93,0,0,1-3.91-1.88A.54.54,0,0,1,454.27,896.46Z" transform="translate(-238.69 -736.8)"></path>
    <path class="logo-centered" d="M475.28,898.06l8-17.31a.46.46,0,0,1,.44-.28H484a.44.44,0,0,1,.44.28l7.92,17.31a.45.45,0,0,1-.44.67h-2.24a.74.74,0,0,1-.75-.52l-1.26-2.78H480l-1.26,2.78a.78.78,0,0,1-.75.52h-2.24A.45.45,0,0,1,475.28,898.06Zm11.11-5.48-2.57-5.66h-.08l-2.52,5.66Z" transform="translate(-238.69 -736.8)"></path>
    <path class="logo-centered" d="M507.38,880.85a.43.43,0,0,1,.46-.38h.41a.47.47,0,0,1,.44.26l5.66,12.14h.08l5.66-12.14a.44.44,0,0,1,.44-.26h.41a.43.43,0,0,1,.46.38l3,17.29a.45.45,0,0,1-.46.59h-2.34a.56.56,0,0,1-.49-.39l-1.52-9.75h-.08L515,898.7a.44.44,0,0,1-.44.28h-.46a.46.46,0,0,1-.44-.28l-4.55-10.11h-.08l-1.49,9.75a.5.5,0,0,1-.46.39h-2.32a.47.47,0,0,1-.49-.59Z" transform="translate(-238.69 -736.8)"></path>
    <path class="logo-centered" d="M536.45,898.06l8-17.31a.46.46,0,0,1,.44-.28h.26a.44.44,0,0,1,.44.28l7.92,17.31a.45.45,0,0,1-.44.67h-2.24a.74.74,0,0,1-.75-.52l-1.26-2.78h-7.69l-1.26,2.78a.78.78,0,0,1-.75.52h-2.24A.45.45,0,0,1,536.45,898.06Zm11.11-5.48L545,886.92h-.08l-2.52,5.66Z" transform="translate(-238.69 -736.8)"></path>
    <path class="logo-centered" d="M566,881.21a.51.51,0,0,1,.49-.49h2.39a.51.51,0,0,1,.49.49v17a.51.51,0,0,1-.49.49h-2.39a.51.51,0,0,1-.49-.49Z" transform="translate(-238.69 -736.8)"></path>
    <path class="logo-centered" d="M592.07,880.46a8.7,8.7,0,0,1,6.23,2.39.48.48,0,0,1,0,.72l-1.57,1.62a.41.41,0,0,1-.64,0,6.09,6.09,0,0,0-4-1.52,6,6,0,0,0,0,11.94,6.17,6.17,0,0,0,3.94-1.47.47.47,0,0,1,.64,0l1.59,1.65a.49.49,0,0,1,0,.7,8.83,8.83,0,0,1-6.25,2.5,9.26,9.26,0,1,1,0-18.52Z" transform="translate(-238.69 -736.8)"></path>
    <path class="logo-centered" d="M609.94,898.06l8-17.31a.46.46,0,0,1,.44-.28h.26a.44.44,0,0,1,.44.28L627,898.06a.45.45,0,0,1-.44.67h-2.24a.74.74,0,0,1-.75-.52l-1.26-2.78h-7.69l-1.26,2.78a.78.78,0,0,1-.75.52h-2.24A.45.45,0,0,1,609.94,898.06Zm11.11-5.48-2.57-5.66h-.08l-2.52,5.66Z" transform="translate(-238.69 -736.8)"></path>
</svg>