<svg xmlns="http://www.w3.org/2000/svg" viewBox="0 0 64.18 14.66"><defs><style>.cls-1{fill:#d3252a;}</style></defs><title>Asset 10</title><g id="Layer_2" data-name="Layer 2"><g id="Layer_1-2" data-name="Layer 1"><g id="_Group_" data-name="&lt;Group&gt;"><g id="_Group_2" data-name="&lt;Group&gt;"><path id="_Compound_Path_" data-name="&lt;Compound Path&gt;" class="cls-1" d="M44.58,14.13h1.24l0,.23H38.67l0-.2h1.23a1.26,1.26,0,0,0-.12-1c-.31-.9-.55-1.82-.85-2.73,0-.13-.11-.25-.17-.39H35.59l-1.36,4.06c.5.09,1,0,1.44.06l0,.17c-.53.09-4.29.12-5.89,0l0-.17s.08-.06.11-.06c.28,0,.56,0,.83,0a1.17,1.17,0,0,0,.33-.13V4a4.77,4.77,0,0,0-1.16.12,1,1,0,0,0-.51.46,4.15,4.15,0,0,0-.34,1,12.15,12.15,0,0,0-.33,1.48H28.4V3.76h7v3.3l-.33,0L34.8,5.8a9,9,0,0,0-.27-1,4,4,0,0,0-.41-.68l-1.51-.14v.61q0,4.49,0,9c0,.2-.09.44.23.58h.87a3.25,3.25,0,0,0,.55-1.26c.23-.57.36-1.18.55-1.76Q35.38,9.36,36,7.64l1.3-3.9h1.09l.36,1.13c.2.62.38,1.25.59,1.87s.44,1.2.61,1.8.37,1.18.55,1.77.38,1.17.57,1.75.3,1,.46,1.48c.06.19.15.37.23.56h1.17V4H41.75l-.61.49c-.06.45-.28.82-.33,1.25s-.19.57-.22.87a.87.87,0,0,1-.34.55,12.41,12.41,0,0,1,0-1.72c0-.55,0-1.11,0-1.69h7.18V7H47c-.11-.76-.46-1.5-.57-2.3,0-.23-.27-.44-.41-.66L44.58,4ZM35.66,9.74h3a2.87,2.87,0,0,1-.18-.47,23.85,23.85,0,0,0-.75-2.5c-.15-.53-.31-1.07-.47-1.62h-.14C36.69,6.69,36.13,8.18,35.66,9.74Z"/><path id="_Compound_Path_2" data-name="&lt;Compound Path&gt;" class="cls-1" d="M63.48,14h.7v.39h-2.4L58,8.89h0s0,0,0,0c0,1.67,0,3.33,0,5h1l.25.39H55.05l.18-.35h1V4H55.14l-.07-.23a1.49,1.49,0,0,1,.24,0c1.58,0,3.16,0,4.75,0a3.13,3.13,0,0,1,2.4,1,5.83,5.83,0,0,1,.45.68c.08.23,0,.46.12.69s-.1.38-.09.57a1.4,1.4,0,0,1-.27.73A2.7,2.7,0,0,1,61,8.6c-.36.12-.74.18-1.17.28ZM57.93,8.7c.39.14.74-.1,1.1-.08a1.9,1.9,0,0,0,.78-.15,1.76,1.76,0,0,0,1.06-.76,2.74,2.74,0,0,0,.19-2.45A2.43,2.43,0,0,1,61,4.92c-.15-.15-.32-.29-.45-.46a1.46,1.46,0,0,0-1-.45,11,11,0,0,0-1.62,0Z"/><path id="_Compound_Path_3" data-name="&lt;Compound Path&gt;" class="cls-1" d="M51.64,3.44a3.93,3.93,0,0,1,3,1.66,4.88,4.88,0,0,1,.78,1.47A5.59,5.59,0,0,1,55.74,8c0,.3-.12.63.12.91a.14.14,0,0,1,0,.12c-.21.39-.08.82-.13,1.23a6.08,6.08,0,0,1-.27,1.11,6.16,6.16,0,0,1-.76,1.48,4,4,0,0,1-1.33,1.23,4.3,4.3,0,0,1-1.12.39c-.14,0-.28,0-.42.09a.44.44,0,0,1-.36,0,8.39,8.39,0,0,1-1.6-.49,4.38,4.38,0,0,1-1.45-1.32,5.89,5.89,0,0,1-.92-2.38,9.33,9.33,0,0,1-.08-2.51,5.22,5.22,0,0,1,.89-2.57,3.69,3.69,0,0,1,1.75-1.55,4.54,4.54,0,0,1,.55-.21C50.95,3.53,51.3,3.49,51.64,3.44ZM50.53,4a2.71,2.71,0,0,0-1,1.23,7.71,7.71,0,0,0-.38,1.83,16.93,16.93,0,0,0,0,2.18,15.64,15.64,0,0,0,.09,2.13,5.25,5.25,0,0,0,.8,2.24,1.66,1.66,0,0,0,.25.25,1.86,1.86,0,0,0,1.63.37,1.8,1.8,0,0,0,1.34-.94,8.76,8.76,0,0,0,.61-2.06,4.72,4.72,0,0,0,0-.89c0-.28.12-.56.12-.85A7.1,7.1,0,0,0,54,7.89c-.12-.47,0-1-.15-1.48a8.89,8.89,0,0,1-.2-.88,2.59,2.59,0,0,0-1-1.5A3.2,3.2,0,0,0,50.53,4Z"/><path id="_Path_" data-name="&lt;Path&gt;" class="cls-1" d="M15.82,14h3c.1-.11.23-.27.38-.42a1.4,1.4,0,0,0,.41-.73,10.33,10.33,0,0,1,.4-1.12c.11-.32.19-.65.31-1.09a.31.31,0,0,1,.42-.05v3.67a1,1,0,0,1-.31.13c-.38,0-.77,0-1.16,0H13.25l0-.37h1V4h-1l0-.19c.53-.09,5.8-.12,7.44,0v3.3l-.32,0a12.86,12.86,0,0,0-1.12-2.82c-.09-.11-.37-.09-.62-.16A5,5,0,0,0,17.24,4H15.86s-.06.06-.06.07c0,1.5,0,3,0,4.55.4,0,.8,0,1.2,0a.86.86,0,0,0,.72-.49A3.76,3.76,0,0,0,18.12,7a3.29,3.29,0,0,1,.16-.49h.32V11h-.31a6.89,6.89,0,0,0-.64-1.81c-.54-.42-1.19-.15-1.82-.24Z"/><path id="_Compound_Path_4" data-name="&lt;Compound Path&gt;" class="cls-1" d="M6.31,14.36v-.22h1V4H6.47L6.4,3.77a1.44,1.44,0,0,1,.24,0c1.33,0,2.65-.05,4,0A3.37,3.37,0,0,1,13.24,5a2.21,2.21,0,0,1,.33,2.34,3,3,0,0,1-2,1.68,2.65,2.65,0,0,1-.91.14c-.59,0-1.19,0-1.8,0v5h1.26v.24Zm2.57-5.5a12.67,12.67,0,0,0,1.6,0,1.54,1.54,0,0,0,1-.48A3.07,3.07,0,0,0,12.08,7c0-.3,0-.6,0-.9a2.88,2.88,0,0,0-.22-.87C11.55,4.37,10.78,4.15,10,4A5.85,5.85,0,0,0,8.88,4Z"/><path id="_Path_2" data-name="&lt;Path&gt;" class="cls-1" d="M0,13.75V10.42H.34c.27.81.41,1.65.68,2.47a2.11,2.11,0,0,0,1.78,1.36,2.87,2.87,0,0,0,1.64-.38,2.07,2.07,0,0,0,1.08-1.73,2.68,2.68,0,0,0-.06-.74A2.8,2.8,0,0,0,3.58,9.64a12.62,12.62,0,0,1-2.07-.88A2.41,2.41,0,0,1,.1,7.12a3.34,3.34,0,0,1-.09-1,1.1,1.1,0,0,1,.19-.88c.06-.07,0-.19.06-.25a3.38,3.38,0,0,1,.4-.58A3.56,3.56,0,0,1,1.32,4a4,4,0,0,1,1.51-.54,2.72,2.72,0,0,1,1.5,0,.76.76,0,0,0,.32,0A3.28,3.28,0,0,1,6,3.76v3.5L5.68,7a7.09,7.09,0,0,0-.54-2.18A2,2,0,0,0,2.67,3.81a3.27,3.27,0,0,0-1,.43A1.9,1.9,0,0,0,1,5.15a3.09,3.09,0,0,0-.13.52c0,.13.1.3.11.46a1.23,1.23,0,0,0,.62.94,6.9,6.9,0,0,0,1.67.78A9.72,9.72,0,0,1,5.71,9a2.29,2.29,0,0,1,1,1.89,3.55,3.55,0,0,1-.25,1.57,3.81,3.81,0,0,1-1,1.27,2.82,2.82,0,0,1-1.33.66c-.24.27-.64-.08-.87.23-.3-.05-.64.13-.91-.13a2.52,2.52,0,0,1-1.3-.26A11.56,11.56,0,0,1,0,13.75Z"/><path id="_Path_3" data-name="&lt;Path&gt;" class="cls-1" d="M28,3.77V7.13l-.34-.22A6.18,6.18,0,0,0,27.17,5c-.07-.21-.07-.46-.31-.58-.07-.36-.37-.48-.65-.58a1.74,1.74,0,0,0-1.14-.1L24.5,4a2.18,2.18,0,0,0-1.37,1.59,6.73,6.73,0,0,0-.41,2.34c0,.94,0,1.88,0,2.82a5.52,5.52,0,0,0,.51,2.16,2.16,2.16,0,0,0,3.44.85,3.3,3.3,0,0,0,.8-1.54c.15-.54.27-1.08.41-1.63h.33v3.3a3.67,3.67,0,0,1-1.81.67c-.18,0-.35.11-.52.12A4.43,4.43,0,0,1,23.17,14a4.92,4.92,0,0,1-2-2.82,5.09,5.09,0,0,1-.26-1.56,7.05,7.05,0,0,0,0-.71,6.07,6.07,0,0,1,.45-2.32,4.22,4.22,0,0,1,1.09-1.73,8.66,8.66,0,0,1,.74-.7A4.42,4.42,0,0,1,25,3.46a2,2,0,0,1,.85-.1c.58.14,1.18.12,1.76.25A2.08,2.08,0,0,1,28,3.77Z"/><path id="_Path_4" data-name="&lt;Path&gt;" class="cls-1" d="M32.21.35,31.88,0h1c.09.21,0,.26-.21.22V2.93L33,3c0,.14-.23.14-1.1,0l.32-.09V1.56H31.1V2.93l.21,0,.3.1h-1.4l.34-.15h0a.1.1,0,0,0,0-.05c0-.85,0-1.7,0-2.53L30.29.15c.09-.17.25-.18,1.1-.08l-.31.31v1h1.13Z"/><path id="_Path_5" data-name="&lt;Path&gt;" class="cls-1" d="M35.29,1l-.18,0L34.8.28h-.87V1.4h.43l.28-.57V2.07c-.2-.26-.29-.6-.72-.52V2.94h.88l.47-1.1c0,.27,0,.45,0,.63s0,.38,0,.59H33.16V3l.22-.08V.32L33,.05c.79-.09,1.46,0,2.11,0l.17.17Z"/><path id="_Path_6" data-name="&lt;Path&gt;" class="cls-1" d="M29.43,2.94,29.8,3v.06H28.42V3l.48-.08V.29a.35.35,0,0,0-.5.21c-.07.17-.12.34-.18.52H28V.18L28.17,0h2V1L30,1c-.13-.29-.09-.7-.55-.8Z"/></g></g></g></g></svg>